<svg width="1440" height="600" viewBox="0 0 1440 600" fill="none" xmlns="http://www.w3.org/2000/svg">
<path d="M59.0466 621.97L51.779 624.525H58.7005L59.7772 624.143L59.9117 624.525H62.3535L61.969 623.381L183.922 580.416C186.825 593.879 190.132 608.544 193.804 624.525H205.706C190.151 556.521 181.653 514.147 180.519 486.572C200.418 480.622 215.473 480.183 219.068 480.183L228.585 513.289C228.681 513.632 228.931 513.899 229.258 514.033C229.393 514.09 229.546 514.128 229.7 514.128C229.892 514.128 230.085 514.09 230.258 513.995L257.867 499.024C258.386 498.738 258.597 498.128 258.386 497.594L246.196 467.177L262.077 459.225L279.4 450.911L296.397 464.927L226.585 624.525H229.104L259.693 554.595L301.242 570.995L303.914 594.375L264.884 600.382C264.346 600.458 263.942 600.897 263.904 601.45L262.347 624.525H264.673L266.153 602.518L281.054 600.23L282.381 624.525H300.184L298.069 597.617L305.356 596.492L333.138 592.888L339.329 624.525H341.694L335.445 592.582L351.096 590.542L354.633 606.16L343.078 624.506H345.808L355.345 609.345L358.786 624.506H363.535L359.171 605.226L403.065 587.434L414.081 617.011C414.274 617.545 414.85 617.869 415.427 617.736L428.52 614.666L431.424 624.506H433.846L430.462 612.968C430.289 612.377 429.674 612.034 429.078 612.167L415.908 615.257L405.218 586.556L496.909 549.389L560.164 539.815L569.181 559.553C569.258 559.706 569.354 559.839 569.469 559.953L594.137 581.274L625.995 617.374L632.301 624.506H635.377L628.398 616.611L642.683 600.211L656.334 621.035C656.565 621.378 656.93 621.55 657.315 621.55C657.526 621.55 657.757 621.493 657.949 621.359C658.488 621.016 658.641 620.31 658.295 619.776L643.818 597.693L632.513 579.443L655.661 558.161L667.485 571.453L667.178 595.309C667.178 595.939 667.678 596.473 668.331 596.473H668.351C668.985 596.473 669.504 595.977 669.504 595.329L669.812 571.014C669.812 570.728 669.716 570.461 669.523 570.232L657.372 556.559L668.831 546.013L698.882 562.166C699.055 562.261 699.247 562.299 699.44 562.299C699.767 562.299 700.113 562.147 700.324 561.88L707.246 553.641L710.764 562.28C710.899 562.604 711.187 562.852 711.533 562.967L727.933 567.486L733.413 583.982C733.471 584.153 733.567 584.306 733.682 584.42L772.712 624.468H778.806L828.622 577.384C828.622 577.384 828.622 577.384 828.641 577.384C828.641 577.384 828.641 577.365 828.66 577.365L856.481 551.067L909.681 580.015L918.89 602.308L901.951 624.525H904.855L933.829 586.614L933.848 586.633C934.06 586.804 934.329 586.88 934.579 586.88C934.925 586.88 935.252 586.728 935.482 586.461C935.886 585.965 935.809 585.24 935.309 584.84L935.232 584.783L950.69 564.549L969.186 578.947C964.13 585.279 959.054 591.61 953.978 597.96L953.959 597.979C953.94 597.998 953.921 598.017 953.921 598.036C950.806 601.946 947.691 605.836 944.576 609.746C940.154 615.276 936.174 620.272 932.752 624.544H953.651C957.227 615.066 960.4 608.449 963.053 605.112C963.438 604.635 963.822 604.139 964.226 603.643L984.164 617.583C984.375 617.717 984.606 617.793 984.836 617.793C985.183 617.793 985.529 617.641 985.759 617.336L993.181 607.572C993.565 607.057 993.469 606.351 992.95 605.97C992.431 605.588 991.72 605.684 991.335 606.199L984.587 615.085L965.668 601.87C977.646 586.861 992.854 567.887 1009.43 547.291L1051.98 568.497L1020.83 624.525H1023.48L1030 612.816L1051.61 624.525H1056.44L1031.11 610.794L1056.99 564.225L1073.28 535.467C1073.34 535.353 1073.39 535.22 1073.41 535.105L1078.37 506.29C1078.37 506.271 1078.37 506.271 1078.37 506.252L1178.85 513.975L1163.45 528.145C1163.05 528.526 1162.95 529.136 1163.26 529.594L1177.22 551.505L1132.07 624.525H1134.8L1178.81 553.279L1256.53 623.991L1256.2 624.525H1262.93L1260.02 623.362L1296.73 584.134L1348.48 607.762C1346.45 613.235 1344.37 618.842 1342.27 624.525H1354.66C1356.98 618.194 1359.29 611.977 1361.52 605.97C1365.52 612.492 1369.38 618.766 1372.98 624.525H1386.63C1383.34 619.319 1379.67 613.426 1375.75 607.076L1407.53 619.529L1419.43 624.525H1425.37L1409.47 617.85L1432.31 562.547L1441.98 566.437L1441.98 563.958L1433.2 560.411L1441.98 539.129L1441.98 533.065L1440.19 537.374L1419.7 527.839L1425.7 515.31L1441.98 521.394L1441.98 518.934L1426.68 513.213L1431.7 502.724C1431.89 502.305 1431.81 501.847 1431.54 501.504L1441.98 505.775L1441.98 503.296L1409.95 490.214C1411.55 486.705 1413.2 483.082 1414.85 479.42L1441.98 490.691L1441.98 488.193L1415.8 477.323C1419.28 469.618 1422.79 461.742 1426.18 454.152L1442 460.522L1442 448.107L1430.89 443.626C1435.08 434.186 1438.87 425.585 1441.81 418.892L1442 418.987L1442 386.663C1430.33 408.174 1414.18 428.961 1376.42 440.098C1374.54 440.384 1372.63 440.708 1370.71 441.089C1353.77 444.446 1310.22 443.912 1273.5 442.196L1285.71 402.053L1316.45 360.518L1355.35 388.189C1355.56 388.342 1355.79 388.399 1356.02 388.399C1356.39 388.399 1356.73 388.227 1356.96 387.922C1357.33 387.407 1357.21 386.682 1356.69 386.32L1317.8 358.687L1338.64 330.521L1442 372.933L1442 370.454L1338.89 328.137L1310.09 301.058L1358.96 241.502L1441.98 282.502L1441.98 269.649L1365.19 231.719L1442 81.5605L1442 60.8122L1420.24 65.5226L1426.83 42.257C1430.66 44.164 1435.96 46.5669 1442.02 48.8171L1442.02 36.4788C1434.7 33.5038 1429.06 30.4908 1427.01 29.3465C1418.8 19.3919 1348.2 -66.1947 1335.72 -77.7894C1323.45 -89.2124 1278.5 -109.179 1267.71 -113.87C1237.38 -169.116 1192.39 -252.033 1189.79 -259.547C1188.89 -263.952 1185.23 -297.172 1181.89 -328.962H1170.24C1170.91 -322.497 1171.66 -315.46 1172.43 -308.366L1165.06 -328.981L1152.76 -328.981L1156.66 -318.054L1102.69 -322.154L1103.71 -328.981H1101.37L1100.37 -322.325L1052.67 -325.949L1052.34 -328.981H1047.67L1048.03 -325.72L1023.98 -321.811L1022.17 -328.981H1019.79L1021.71 -321.448L984.894 -315.479L983.433 -328.981H981.107L982.587 -315.098L934.829 -307.355L931.253 -328.981H928.907L932.541 -306.974L885.724 -299.384C885.513 -309.644 885.34 -319.331 885.205 -327.76L892.473 -328.981H859.192L825.776 -327.665L825.853 -328.981H823.527L821.931 -298.85H806.742C806.492 -298.85 806.262 -298.774 806.05 -298.621C805.877 -298.488 792.284 -288.59 781.69 -281.039L779.191 -297L796.764 -304.59C797.129 -304.743 797.398 -305.105 797.456 -305.506L800.244 -326.921C800.321 -327.532 799.917 -328.085 799.302 -328.199L795.033 -328.981H782.402L797.821 -326.12L795.264 -306.44L777.48 -298.755C776.999 -298.545 776.711 -298.049 776.788 -297.515L779.595 -279.532C776.961 -277.663 774.596 -276.004 772.808 -274.765C764.194 -268.853 729.779 -257.678 726.799 -256.724L702.727 -258.097L659.487 -305.944L653.758 -323.908L661.448 -328.981H657.257L653.027 -326.197L652.124 -328.981H649.682L657.334 -305.029C657.392 -304.876 657.469 -304.724 657.584 -304.609L700.151 -257.468L609.806 -224.458C607.691 -224.934 594.444 -228.157 591.868 -236.109C590.887 -239.103 583.947 -254.569 574.872 -274.65C574.891 -274.65 574.93 -274.65 574.949 -274.669L619.15 -296.142L630.821 -268.891C630.955 -268.586 631.205 -268.357 631.513 -268.262C631.628 -268.224 631.763 -268.204 631.897 -268.204C632.09 -268.204 632.282 -268.262 632.455 -268.357L659.199 -283.117C659.468 -283.27 659.68 -283.537 659.756 -283.842C659.833 -284.147 659.795 -284.471 659.622 -284.738L637.473 -320.075C637.204 -320.514 636.666 -320.704 636.166 -320.571L613.882 -314.335L607.614 -328.981H605.096L618.247 -298.259L573.949 -276.729C573.564 -277.587 573.18 -278.426 572.795 -279.284C566.008 -294.292 557.991 -312.028 550.474 -328.981H547.936C555.434 -312.085 563.509 -294.178 570.68 -278.35C580.736 -256.095 588.676 -238.512 589.695 -235.404C592.368 -227.147 604 -223.542 608.191 -222.493C605.365 -217.268 594.733 -197.893 589.984 -193.183C586.158 -189.388 570.796 -180.177 561.683 -174.856L525.633 -210.613L470.876 -328.981H458.11L481.374 -278.674L396.143 -286.245C404.487 -298.774 414.543 -313.858 424.637 -328.981H410.717C402.026 -315.975 393.009 -302.454 385.338 -290.898L392.509 -328.981H390.145L385.069 -301.997L339.444 -313.668L342.598 -328.981H340.233L331.619 -287.16L280.785 -300.433L282.9 -328.981H280.573L278.401 -299.651L278.401 -299.632L278.401 -299.613L275.055 -223.313C275.036 -222.76 275.401 -222.284 275.92 -222.15L297.377 -216.715L251.907 -186.756L216.838 -288.915C221.183 -294.617 231.123 -309.167 237.083 -329L224.855 -329C219.222 -312.314 210.762 -300.09 207.378 -295.627L199.707 -308.995C199.534 -309.301 199.246 -309.491 198.899 -309.568C198.553 -309.625 198.207 -309.529 197.938 -309.32L182.076 -295.951L139.605 -328.981H135.856L180.308 -294.388L136.779 -257.716L135.125 -290.23C135.106 -290.726 134.741 -291.165 134.26 -291.279L121.013 -294.598C120.783 -294.655 120.552 -294.636 120.321 -294.559L93.6925 -284.7L51.5098 -288.457L60.2578 -321.086H76.6387C77.1578 -321.086 77.6193 -321.448 77.7539 -321.944L79.6188 -328.981H77.2155L75.7351 -323.374H59.4695L46.3571 -326.101L46.9147 -328.981H44.5498L44.0884 -326.578L32.5333 -328.981H21.2282L43.6654 -324.328L36.8785 -289.296L14.0568 -278.369L0.0214843 -281.096L0.0214843 -278.75L12.9224 -276.233L10.4999 -256.858L0.0214843 -259.566L0.0214843 -257.182L2.96312 -256.419L0.0214842 -225.449L0.0214842 -200.906L2.02103 -221.959L42.5118 -214.045L38.9742 -174.685L0.0214842 -175.981L0.0214842 -173.674L39.9932 -172.339H40.0316L82.3105 -172.987L89.3089 -128.325C57.6238 -131.014 23.4392 -140.511 0.0214841 -148.158L0.0214841 -136.01C5.50101 -134.256 11.4612 -132.444 17.8444 -130.633C51.952 -120.945 81.3684 -116.063 105.536 -116.063C109.17 -116.063 112.688 -116.177 116.072 -116.387C124.935 -116.959 133.991 -118.523 143.008 -120.735L180.25 -111.83L176.193 -87.1528C160.735 -90.3947 142.431 -95.2385 142.162 -95.2957C142.085 -95.3148 142.009 -95.3339 141.951 -95.3339L108.978 -97.6414C108.804 -97.6414 108.631 -97.6223 108.478 -97.5651L24.5928 -65.184L0.0214841 -91.5961L0.0214841 -88.2016L23.0739 -63.4105L22.0934 -39.0389C22.0934 -38.8673 22.1126 -38.7147 22.1703 -38.5622L36.6862 -2.99637L34.7252 6.04285L0.021484 -68.4641L0.021484 -41.0412L35.898 36.0211C31.4567 38.6718 27.6114 40.9793 24.4582 42.8673L0.0214839 26.0284L0.0214839 40.0258L17.0369 51.7539L8.32729 71.7013C6.25084 66.8765 3.50146 61.9183 0.0214839 56.9792L0.0214838 82.7238C0.675182 84.8596 1.21352 86.9383 1.61728 88.9979C1.65573 89.3411 1.71341 89.6844 1.82877 90.0276C4.40511 103.968 1.71341 115.391 0.0214838 120.673L0.0214837 139.705L8.57723 129.865C8.96176 129.427 9.26939 128.95 9.5001 128.416C9.98076 127.31 17.0945 110.7 13.4415 88.9406L28.8419 53.68C32.7448 51.3344 36.7439 48.9506 40.8007 46.5096L75.7928 121.684L48.722 131.715C48.3182 131.867 48.0491 132.211 47.9721 132.63L45.1651 151.224L31.2259 182.518L8.05812 194.265C7.51978 194.532 7.28907 195.18 7.51978 195.733L65.1413 331.837L74.9468 354.969C69.871 357.257 64.9491 359.508 60.1617 361.682L0.0214836 222.336L0.0214836 228.172L58.066 362.673C55.1628 363.989 52.3365 365.286 49.5487 366.544L0.0214836 250.636L0.0214836 256.529L47.453 367.498C41.1083 370.397 35.0712 373.143 29.3994 375.736L11.9803 331.036C11.7496 330.445 11.0767 330.159 10.4807 330.368C9.88463 330.597 9.57701 331.265 9.80773 331.856L27.2845 376.69C16.8254 381.457 7.67359 385.653 0.0214834 389.181L0.0214834 401.862C8.36574 398.029 18.9787 393.147 31.4567 387.445L46.4533 425.929C30.7261 432.737 15.5372 439.316 1.75186 445.266L0.0214833 440.174L0.0214833 448.508C0.136842 448.451 0.232974 448.412 0.348332 448.374L32.9179 544.678L0.0214832 558.237L0.0214832 560.735L33.6485 546.871L59.0466 621.97ZM284.707 624.487L283.361 599.867L295.762 597.96L297.781 623.8L284.707 624.487ZM614.786 -312.199L635.954 -318.13L656.988 -284.509L632.436 -270.951L614.786 -312.199ZM183.422 578.146L61.2384 621.207L35.8018 545.994L72.9472 530.681C73.524 530.433 73.8124 529.785 73.5817 529.193L65.795 509.303C65.7758 509.246 65.7373 509.208 65.6989 509.151L164.984 473.909L169.079 472.46C167.522 495.592 172.771 528.64 183.422 578.146ZM907.739 -211.948C907.777 -212.367 907.585 -212.768 907.239 -212.996C906.893 -213.225 906.451 -213.263 906.066 -213.073L888.666 -204.529C887.916 -218.012 887.263 -236.968 886.724 -256.953L941.039 -255.599L941.519 -252.681C941.404 -251.442 940.635 -243.032 940.5 -230.999C940.5 -230.922 940.481 -230.865 940.5 -230.789C940.443 -224.61 940.558 -217.478 941.02 -209.869C941.02 -209.85 941 -209.812 941 -209.793C941 -209.735 941.02 -209.697 941.039 -209.64C941.712 -198.637 943.135 -186.68 945.807 -175.18C948.691 -162.823 956.074 -136.506 964.591 -107.176L898.049 -95.5246C897.914 -97.3934 897.779 -99.2814 897.645 -101.169L907.739 -211.948ZM896.626 -115.491C894.319 -146.747 891.8 -177.564 890.185 -186.794C889.704 -189.578 889.243 -194.937 888.82 -202.069L905.258 -210.136L896.626 -115.491ZM1058.88 -227.28L1062.42 -195.09L1037.31 -202.794L1037.31 -229.683L1058.88 -227.28ZM1037.31 -232.028L1037.31 -264.696L1055.15 -261.129L1058.61 -229.626L1037.31 -232.028ZM1008.74 -131.224L1002.68 -148.749L1067.11 -152.563L1068.13 -143.276L1008.74 -131.224ZM1068.38 -141.007L1069.49 -130.957L1016.31 -109.35L1009.5 -129.05L1068.38 -141.007ZM1001.89 -151.019L999.006 -159.352C998.795 -159.962 998.141 -160.268 997.526 -160.058C996.911 -159.848 996.603 -159.2 996.815 -158.589L1014.52 -107.405C1014.62 -107.1 1014.85 -106.871 1015.14 -106.738C1015.29 -106.662 1015.44 -106.642 1015.62 -106.642C1015.77 -106.642 1015.93 -106.681 1016.06 -106.719L1069.76 -128.535L1069.78 -128.268C1063.53 -105.651 1054.86 -81.222 1048.84 -71.2292L982.549 -54.2568C968.783 -100.654 952.652 -155.996 948.056 -175.714C945.499 -186.68 944.115 -198.084 943.423 -208.648H975.262C975.896 -208.648 976.415 -209.163 976.415 -209.793L976.415 -219.061L997.834 -212.482L987.221 -180.73C987.028 -180.12 987.355 -179.471 987.951 -179.281C988.067 -179.242 988.201 -179.223 988.317 -179.223C988.797 -179.223 989.259 -179.528 989.412 -180.005L1000.03 -211.795L1011.6 -208.248L1011.6 -177.774C1011.6 -177.145 1012.12 -176.63 1012.75 -176.63L1064.41 -176.63L1066.82 -154.833L1001.89 -151.019ZM1117.88 -37.6468L1111.79 -51.6633C1111.54 -52.2354 1110.88 -52.5024 1110.31 -52.2735L1099.16 -47.9637C1098.73 -47.8112 1098.46 -47.4297 1098.43 -46.9911L1096.81 -26.7959L1064.66 -18.138C1064.07 -17.9855 1063.7 -17.3943 1063.84 -16.8031L1068.16 4.21213C1068.28 4.76517 1068.76 5.1275 1069.3 5.1275C1069.38 5.1275 1069.45 5.1275 1069.53 5.10843L1123.34 -5.76154C1123.65 3.1633 1123.9 10.4671 1124.04 14.4337C1097.73 13.976 1066.78 12.9653 1061.68 10.2192C1054.78 6.48148 1016.56 -24.8507 992.431 -44.9506L1120.73 -77.7894C1121.04 -69.5129 1121.59 -54.2378 1122.19 -38.2761L1117.88 -37.6468ZM1122.25 -35.9495C1122.59 -26.3191 1122.96 -16.5934 1123.25 -8.08807L1070.18 2.6293L1066.32 -16.1929L1098.2 -24.7554C1098.68 -24.8889 1099 -25.2893 1099.04 -25.7661L1100.66 -46.0567L1110.08 -49.6991L1116.08 -35.8923C1116.29 -35.4156 1116.81 -35.1295 1117.31 -35.2058L1122.25 -35.9495ZM1213.8 387.045C1213.8 387.121 1213.8 387.197 1213.8 387.274C1214.09 400.337 1213.25 411.817 1212.84 415.497C1210.32 414.773 1204.21 412.999 1196.04 410.501C1196.06 410.406 1196.08 410.329 1196.06 410.234L1192.15 378.177C1192.08 377.548 1191.5 377.09 1190.87 377.166C1190.23 377.243 1189.77 377.815 1189.85 378.444L1193.65 409.757C1178.64 405.123 1157.76 398.334 1139.44 391.164C1148.07 381.743 1154.39 375.488 1157.45 373.677C1166.31 368.394 1187.02 360.747 1209.23 353.31C1212.36 362.883 1213.53 375.545 1213.8 387.045ZM1211.42 352.585C1233.41 345.262 1256.54 338.225 1270.94 333.934L1216.01 384.604C1215.63 373.543 1214.38 361.701 1211.42 352.585ZM891.627 407.526C891.454 406.954 890.839 406.611 890.262 406.744L871.862 411.073C871.266 411.207 870.882 411.779 870.978 412.37L873.439 427.435L857.75 432.355L848.233 402.606L905.182 388.57L909.296 414.735L895.703 420.341L891.627 407.526ZM893.53 421.161L875.688 426.749L873.458 413.075L889.762 409.242L893.53 421.161ZM870.805 473.146L865.094 455.297L915.295 441.929L920.313 460.446L870.805 473.146ZM920.909 462.658L927.542 487.125L875.823 498.433L871.362 475.378L920.909 462.658ZM868.901 474.748L873.593 499.082L831.891 515.196L802.82 481.823L851.175 419.426L855.885 434.148L855.885 434.167C855.885 434.167 855.885 434.167 855.885 434.186L862.48 454.782L862.48 454.801C862.48 454.82 862.499 454.82 862.499 454.82L868.901 474.748ZM829.91 516.416L798.187 543.057L774.788 517.961L801.378 483.654L829.91 516.416ZM850.329 416.756L773.192 516.283L727.433 467.216L826.103 373.028L841.138 389.161L809.396 425.624C808.973 426.1 809.03 426.825 809.511 427.245C809.992 427.664 810.722 427.607 811.145 427.13L842.215 391.431L850.329 416.756ZM724.261 467.063L715.205 475.702L690.788 447.497L726.876 412.046L752.12 440.441L725.799 465.576C725.376 465.385 724.876 465.442 724.511 465.766C724.165 466.109 724.069 466.624 724.261 467.063ZM541.726 454.839C541.149 454.572 540.457 454.801 540.168 455.373L529.824 476.312L517.731 477.819L507.945 462.505L521.942 445.514H543.341C543.975 445.514 544.494 444.999 544.494 444.37C544.494 443.74 543.975 443.225 543.341 443.225H522.557L522.557 426.806L541.053 429.438C541.11 429.438 541.168 429.457 541.226 429.457C541.533 429.457 541.822 429.342 542.052 429.113C542.302 428.865 542.437 428.503 542.379 428.141L538.842 402.377C538.784 401.958 538.515 401.614 538.111 401.462L522.768 395.512L533.497 350.583L543.052 353.081C543.629 353.233 544.225 352.928 544.436 352.375L557.914 316.39L560.164 319.022C560.183 319.041 560.221 319.06 560.241 319.079C560.26 319.098 560.26 319.136 560.279 319.155L659.833 402.606L633.916 426.958L572.411 374.306C571.93 373.886 571.2 373.944 570.777 374.42L560.164 386.358C559.741 386.835 559.779 387.56 560.26 387.979C560.74 388.399 561.471 388.361 561.894 387.884L571.757 376.804L598.405 399.631L585.696 411.741C585.235 412.179 585.216 412.904 585.658 413.362L615.363 444.408L600.943 457.947L572.43 484.741L559.683 470.019C559.26 469.542 558.529 469.485 558.049 469.885C557.568 470.305 557.51 471.03 557.914 471.506L570.738 486.324L555.357 500.76L531.959 477.246L542.225 456.479C542.552 455.793 542.302 455.106 541.726 454.839ZM308.625 403.216L315.758 434.663L306.644 438.095L295.57 406.916L308.625 403.216ZM293.724 405.047L250.715 416.889L240.698 382.506C240.582 382.086 240.217 381.762 239.794 381.686L225.759 379.226C225.547 377.128 225.24 375.107 224.855 373.2C224.721 372.532 224.509 371.674 224.221 370.683L296.089 348.008L308.105 400.966L293.724 405.047ZM300.069 344.557C299.934 343.927 299.53 343.393 298.954 343.069C298.761 342.955 298.55 342.917 298.358 342.878L293.801 327.737L352.845 307.999L371.514 363.817L358.133 369.138C357.594 369.348 357.287 369.939 357.44 370.492L372.648 427.283L320.199 433.233L300.069 344.557ZM382.646 307.179L399.392 300.657L420.964 344.099L399.931 352.471L382.646 307.179ZM397.777 353.329L373.648 362.921L358.19 316.676L380.493 307.999L397.777 353.329ZM357.46 314.502L354.672 306.149L350.519 293.754L389.395 280.519L398.373 298.598L357.46 314.502ZM359.921 370.873L422.003 346.177L447.343 397.209L449.343 411.512L414.985 417.5C414.908 417.519 414.812 417.538 414.735 417.576L398.604 424.308L374.956 426.997L359.921 370.873ZM424.156 345.319L479.067 323.465L479.163 324.972L461.648 409.376L451.631 411.13L449.612 396.713C449.593 396.599 449.554 396.465 449.496 396.37L424.156 345.319ZM462.628 411.55L474.664 413.514L479.47 421.237L463.147 429.819H463.128L433.981 445.914L417.081 419.483L462.628 411.55ZM434.308 448.374L463.339 432.355L478.644 455.411L438.941 474.71L425.925 456.689L434.308 448.374ZM465.377 431.249L480.701 423.202L500.792 455.411L480.97 454.763L465.377 431.249ZM482.758 422.115L491.506 417.519C491.852 417.328 492.083 416.985 492.121 416.603L494.179 392.976L510.54 385.977C511.136 385.729 511.405 385.042 511.156 384.47C510.906 383.879 510.213 383.612 509.637 383.86L492.641 391.126C492.256 391.297 491.987 391.66 491.948 392.079L489.872 415.764L481.547 420.131L476.375 411.836C476.202 411.55 475.914 411.359 475.587 411.302L464.032 409.414L481.489 325.277C481.508 325.181 481.508 325.086 481.508 324.972L481.355 322.264C481.528 321.977 481.566 321.615 481.432 321.272C481.393 321.177 481.335 321.119 481.278 321.043L480.105 301.267C480.086 301.096 480.047 300.924 479.97 300.772L465.589 274.855L528.402 266.77L535.208 289.711C535.246 289.863 535.323 290.016 535.439 290.13L556.241 314.292L542.687 350.506L532.997 347.97C532.689 347.894 532.381 347.932 532.112 348.104C531.843 348.256 531.651 348.523 531.574 348.828L520.346 395.874C520.327 395.97 520.307 396.046 520.307 396.141L520.307 396.179L520.307 443.912L506.733 460.407L482.758 422.115ZM691.826 146.018C692.038 146.38 692.422 146.59 692.826 146.59C693.018 146.59 693.21 146.532 693.403 146.437L693.883 146.151C695.652 148.516 697.421 150.88 699.094 153.15C698.844 153.15 698.594 153.207 698.382 153.379L670.792 174.565L656.642 154.351C667.274 141.612 676.31 130.514 679.233 126.928C683.251 132.134 687.904 138.218 692.461 144.301L692.211 144.435C691.711 144.759 691.518 145.464 691.826 146.018ZM699.824 155.209C700.017 155.057 700.132 154.847 700.209 154.637C707.361 164.344 713.09 172.487 713.898 174.604C711.898 176.701 699.632 186.675 686.596 197.125L672.138 176.473L699.824 155.209ZM684.789 198.575C678.964 203.228 673.08 207.919 667.947 211.962C667.447 212.362 667.37 213.087 667.755 213.583C667.985 213.869 668.312 214.022 668.658 214.022C668.908 214.022 669.158 213.945 669.389 213.774C680.06 205.345 714.975 177.636 716.128 175.5C716.474 174.871 717.243 173.345 695.941 145.007L723.05 129.579L725.818 137.074C726.03 137.665 726.703 137.97 727.299 137.76C727.895 137.531 728.202 136.883 727.991 136.292L724.742 127.52C724.626 127.195 724.376 126.947 724.05 126.833C723.723 126.719 723.377 126.757 723.069 126.909L707.63 135.682L703.631 128.282L724.28 114.819C724.819 114.476 724.972 113.751 724.607 113.217C724.261 112.683 723.53 112.53 722.992 112.893L701.458 126.928C700.959 127.253 700.786 127.901 701.074 128.435L705.611 136.826L694.499 143.138C690.557 137.913 685.904 131.829 680.425 124.735L683.732 80.8168L735.643 41.7612L765.213 100.192L778.96 160.549L767.52 162.57C767.328 162.609 767.136 162.685 766.982 162.818L667.697 245.564L584.812 277.544L577.89 249.797C577.775 249.339 577.391 248.996 576.929 248.939L532.132 242.684L535.727 198.155C553.338 201.931 578.525 206.584 595.848 206.584C603.981 206.584 610.364 205.554 613.44 202.942C620.765 196.687 639.357 175.004 655.084 156.201L684.789 198.575ZM660.391 83.9824L631.686 61.2509C648.182 50.2283 675.234 32.1117 697.383 17.0845L718.801 40.0258L660.391 83.9824ZM1040.82 321.978L1041.23 350.964C1041.19 350.926 1041.15 350.907 1041.11 350.869C983.51 302.125 948.749 272.929 933.348 260.038L953.075 234.236L1007.04 262.021C1007.22 262.116 1007.39 262.155 1007.58 262.155C1008 262.155 1008.41 261.926 1008.62 261.525C1008.91 260.953 1008.7 260.267 1008.12 259.981L926.1 217.759L914.641 165.526L936.04 141.937L1018.41 168.406L1007.6 203.266C1007.41 203.876 1007.75 204.525 1008.37 204.696C1008.49 204.734 1008.6 204.754 1008.72 204.754C1009.22 204.754 1009.68 204.429 1009.83 203.934L1020.73 168.806H1047.48L1039.34 214.67L1040.82 321.978ZM662.333 401.614L647.394 389.085L715.898 327.546C716.148 327.336 716.282 327.012 716.282 326.688L716.282 297.778L761.176 270.717C761.31 270.641 761.426 270.526 761.522 270.393L776.384 249.683L797.706 244.858L819.259 250.999L821.508 260.305C821.508 260.305 821.508 260.305 821.508 260.324L832.39 305.196L744.68 391.336C744.68 391.336 744.68 391.336 744.68 391.355L688.481 446.544L661.66 469.084L653.681 443.988C653.623 443.778 653.489 443.607 653.335 443.454L635.723 428.389L662.41 403.312C662.64 403.083 662.775 402.778 662.775 402.453C662.737 402.129 662.583 401.824 662.333 401.614ZM800.571 109.498L809.376 133.546L776.576 139.267L771.327 116.249L800.571 109.498ZM770.808 114.018L767.751 100.573L794.303 92.3924L799.763 107.305L770.808 114.018ZM810.165 135.739L823.219 171.4L786.689 178.723C786.189 178.818 785.843 179.238 785.786 179.714L777.076 141.517L810.165 135.739ZM820.451 229.087L792.515 204.353L831.987 195.333L841.254 220.639L820.451 229.087ZM842.081 222.794L853.424 250.522L823.469 258.588L821.374 249.95L821.374 231.185L842.081 222.794ZM790.938 202.351L785.959 180.477C786.17 180.801 786.535 180.992 786.92 180.992C786.997 180.992 787.074 180.992 787.151 180.973L824.027 173.574L831.198 193.14L790.938 202.351ZM787.593 198.174L763.156 210.036L758.772 204.754C758.369 204.258 757.638 204.2 757.138 204.601C756.638 205.001 756.581 205.726 756.984 206.222L761.964 212.191C762.195 212.458 762.522 212.61 762.848 212.61C763.021 212.61 763.195 212.572 763.368 212.496L788.131 200.463L788.843 203.59L779.556 222.05L726.107 250.56L714.532 230.861L722.358 226.513C722.627 226.36 722.838 226.093 722.915 225.788C722.992 225.483 722.934 225.159 722.781 224.892L713.936 210.837C713.821 210.665 713.667 210.551 713.513 210.455L768.328 164.763L779.556 162.78L787.593 198.174ZM720.147 225.101L712.36 229.43C712.091 229.583 711.898 229.831 711.802 230.136C711.725 230.441 711.764 230.746 711.918 231.013L724.05 251.647L700.132 264.405C700.305 264.062 700.324 263.661 700.113 263.299L683.828 236.162C683.693 235.933 683.463 235.781 683.232 235.685L711.86 211.828C711.879 211.905 711.898 212 711.956 212.076L720.147 225.101ZM698.113 264.462C698.305 264.786 698.632 264.958 698.997 264.996L576.968 330.063L562.298 317.763L567.45 286.755L668.774 247.661C668.889 247.623 669.004 247.547 669.1 247.471L681.694 236.982C681.713 237.115 681.751 237.23 681.828 237.363L698.113 264.462ZM780.979 223.9C781.19 223.786 781.363 223.614 781.46 223.404L790.419 205.612L819.047 230.956L819.047 248.577L798.033 242.589C797.841 242.531 797.648 242.531 797.456 242.57L775.422 247.566C775.153 247.623 774.903 247.795 774.73 248.024L759.753 268.905L714.513 296.176C714.167 296.385 713.956 296.748 713.956 297.167L713.956 326.211L645.606 387.617L578.871 331.684L780.979 223.9ZM762.791 376.785L774.404 390.229L758.657 404.551L747.064 392.232L762.791 376.785ZM745.41 393.853L757.734 406.954C757.965 407.202 758.273 407.316 758.58 407.316C758.869 407.316 759.138 407.221 759.368 407.011L775.903 391.984L788.112 406.096L753.793 438.858L728.529 410.444L745.41 393.853ZM764.444 375.164L797.687 342.516L816.413 362.597L824.546 371.312L789.804 404.475L764.444 375.164ZM799.321 340.895L833.198 307.618L844.445 336.089L817.317 360.232L799.321 340.895ZM824.008 260.839L854.289 252.677L869.074 288.815L834.448 303.956L824.008 260.839ZM844.234 221.974L865.633 214.46L890.204 279.585L871.208 287.899L844.234 221.974ZM867.805 213.697L879.476 209.597L904.413 273.368L892.319 278.669L867.805 213.697ZM881.668 208.815L894.992 204.143L914.795 258.531C915.141 259.485 915.737 260.324 916.525 260.972C916.602 261.029 918.429 262.555 922.101 265.625L906.566 272.414L881.668 208.815ZM924.043 267.284C938.366 279.28 973.57 308.838 1033.59 359.603C1036.13 361.739 1038.65 363.817 1041.17 365.877L1040.19 401.157L914.602 287.995L907.508 274.512L924.043 267.284ZM1020.04 166.499L936.04 139.496C935.617 139.362 935.136 139.476 934.829 139.82L912.526 164.401C912.276 164.668 912.18 165.05 912.257 165.412L923.966 218.751C924.043 219.075 924.254 219.361 924.562 219.533L951.017 233.149L931.599 258.531C928.522 255.957 926.388 254.164 925.177 253.154L883.994 140.03C883.898 139.782 883.783 139.534 883.667 139.286L871.343 116.249L919.005 83.3722H959.708C960.342 83.3722 960.861 82.8573 960.861 82.228L960.861 28.3549L1002.16 18.8961L1017.68 61.556C1017.73 61.7085 1017.81 61.823 1017.91 61.9374L1041.04 86.843L1044.09 136.73C1044.11 137.074 1044.28 137.379 1044.55 137.589L1053.92 144.511L1057.34 166.499H1020.04ZM873.208 144.339L894.184 201.969L880.822 206.661L831.641 80.8931L840.485 78.166C845.464 90.7714 851.155 103.11 857.577 115.086L873.208 144.339ZM878.649 207.442L866.998 211.542L819.163 84.7643L829.43 81.5987L878.649 207.442ZM864.825 212.305L843.407 219.838L796.533 91.7249L816.952 85.4318L864.825 212.305ZM795.706 89.57L767.924 18.0189C775.23 13.4993 781.921 10.3718 787.977 8.67453L816.125 83.2959L795.706 89.57ZM793.495 90.2565L766.982 98.4185L737.585 40.35L763.291 21.0129C764.175 20.4026 765.059 19.8496 765.925 19.2775L793.495 90.2565ZM575.891 251.113L582.697 278.383L565.989 284.829C565.605 284.981 565.336 285.306 565.259 285.706L560.318 315.589L537.323 288.872L530.363 265.435L532.016 245.01L575.891 251.113ZM522.557 397.858L536.631 403.312L539.861 426.901L522.557 424.441L522.557 397.858ZM632.243 428.484L617.093 442.729L588.177 412.522L600.212 401.061L632.243 428.484ZM572.296 487.964L583.178 500.55C583.37 500.779 583.658 500.932 583.966 500.951L592.752 501.656C592.791 501.656 592.81 501.656 592.849 501.656C593.445 501.656 593.944 501.198 594.002 500.607C594.06 499.978 593.579 499.425 592.945 499.368L584.639 498.7L573.987 486.4L601.75 460.312L616.209 475.339C616.439 475.568 616.747 475.702 617.055 475.702C617.343 475.702 617.631 475.587 617.862 475.378C618.324 474.939 618.343 474.214 617.901 473.757L603.442 458.729L634.012 430.01L651.547 445.018L659.718 470.724L585.235 533.313L557.011 502.343L572.296 487.964ZM626.802 501.389L649.509 525.761L637.723 534.419L632.051 527.668C631.84 527.401 631.513 527.248 631.167 527.248C630.782 527.267 630.494 527.401 630.282 527.649L612.844 547.844L597.309 526.18L626.802 501.389ZM628.571 499.902L660.468 473.089L671.965 509.284L651.393 524.388L628.571 499.902ZM662.391 471.487L689.077 449.061L713.533 477.304L706.919 483.616L673.926 507.835L662.391 471.487ZM826.988 370.568L818.913 361.91L845.368 338.378L857.846 369.958L842.677 387.388L826.988 370.568ZM846.945 336.07C846.945 336.051 846.926 336.032 846.926 336.013L835.121 306.187L869.882 290.989L892.954 359.927L859.884 368.814L846.945 336.07ZM871.997 290.054L891.108 281.701L925.446 351.193L895.203 359.317L871.997 290.054ZM893.223 280.767L905.355 275.465L912.603 289.253C912.661 289.368 912.757 289.482 912.853 289.577L1011.5 378.463L996.084 398.22L953.44 364.752C952.94 364.351 952.209 364.447 951.806 364.943C951.402 365.438 951.498 366.163 951.998 366.563L1037.67 433.786L1008.87 439.182L935.156 370.244L928.176 351.536C928.176 351.517 928.157 351.498 928.138 351.479C928.138 351.46 928.138 351.441 928.119 351.422L893.223 280.767ZM1039.23 435.826L1037.61 494.047C1034.59 497.747 1031.54 501.504 1028.48 505.299L1014.62 494.581L1009.79 441.337L1039.23 435.826ZM997.949 399.631L1013.27 380.008L1040.11 404.189L1039.34 432.107L997.949 399.631ZM1042.36 406.229L1081.12 441.147C1068.41 456.365 1054.57 473.204 1040 491.091L1042.36 406.229ZM1042.44 403.197L1043.42 367.689C1065.57 385.424 1087.08 399.364 1107.16 410.348C1099.62 419.102 1091.39 428.827 1082.58 439.373L1042.44 403.197ZM1103.58 373.314C1089.45 362.578 1070.12 345.682 1057.07 334.03C1057.17 333.992 1057.28 333.954 1057.36 333.877L1065.24 327.603L1092.68 333.992L1108.85 361.91L1103.58 373.314ZM1110.85 363.131L1144.68 369.386C1140.42 373.391 1134.82 379.207 1128.13 386.568C1118.73 382.525 1110.69 378.463 1105.48 374.725L1110.85 363.131ZM1103.33 376.022C1108.56 379.951 1116.81 384.184 1126.48 388.38C1122.94 392.308 1119.09 396.618 1115 401.309C1092.66 389.333 1068.38 373.581 1043.55 352.89L1043.15 324.59C1051.36 332.047 1083.16 360.861 1103.33 376.022ZM1117.65 415.898C1153.82 434.32 1184.48 443.035 1204.27 447.116C1203.23 450.853 1202.15 454.744 1201.06 458.653L1104.31 431.573C1108.94 426.081 1113.4 420.837 1117.65 415.898ZM1102.66 433.5L1130.5 441.299L1127.07 453.065L1094.14 443.626C1097.04 440.193 1099.89 436.799 1102.66 433.5ZM1132.75 441.929L1200.42 460.865C1199.27 464.984 1198.13 469.103 1197.02 473.089L1129.3 453.695L1132.75 441.929ZM1202.96 460.388C1202.98 460.388 1202.98 460.388 1202.96 460.388C1204.17 456.04 1205.36 451.711 1206.52 447.573C1207.11 447.688 1207.69 447.802 1208.25 447.917C1225.03 451.826 1236.49 454.934 1244.37 458.005L1191.14 502.877C1193.23 495.401 1198.13 477.761 1202.96 460.388ZM1207.36 435.883C1203.83 435.082 1200.1 434.243 1196.17 433.366C1178.41 428.885 1153.82 420.894 1125.54 406.801C1129.96 401.748 1134.05 397.133 1137.74 393.052C1168.05 405.009 1205.36 415.783 1212.38 417.786C1211.69 420.303 1209.8 427.092 1207.36 435.883ZM1151.47 363.836C1150.28 364.561 1148.7 365.782 1146.82 367.441L1110.9 360.804L1094.45 332.409C1094.29 332.142 1094.02 331.932 1093.72 331.856L1065.24 325.219C1064.9 325.143 1064.53 325.219 1064.24 325.448L1055.92 332.085C1055.72 332.237 1055.61 332.447 1055.55 332.676C1049.05 326.859 1044.38 322.588 1043.11 321.424L1041.61 214.861L1049.8 168.806H1058.65L1158.14 170.103C1163.83 195.104 1170.33 223.538 1177.68 255.671C1182.18 275.37 1185.16 288.376 1185.54 290.092C1187 296.71 1198.61 329.872 1203.33 343.164C1181.27 350.621 1160.78 358.306 1151.47 363.836ZM1129.02 19.1249C1134.4 19.2012 1139.9 19.2775 1145.47 19.3538C1156.74 19.4873 1165.66 19.6017 1168.99 19.8306C1169.2 19.8496 1169.41 19.8496 1169.66 19.8496C1183 19.8496 1259.54 -0.631653 1281.42 -6.56247L1305.24 96.3399C1305.26 96.4543 1305.32 96.5497 1305.34 96.645C1305.36 96.7213 1305.36 96.7785 1305.38 96.8548L1340.26 201.264L1179.08 240.872C1162.76 169.436 1132.21 35.7159 1129.02 19.1249ZM1232.76 1.50418C1203.98 8.84616 1175.12 15.6733 1169.31 15.2346C1165.85 14.9868 1156.87 14.8723 1145.53 14.7389C1140.57 14.6816 1134.8 14.6053 1128.67 14.51C1128.23 -0.0214539 1126 -60.3402 1125.3 -78.9717L1195.88 -97.0311L1215.44 -89.9752L1232.78 -37.2654L1232.78 1.50418H1232.76ZM1157.64 167.796L1059.69 166.518L1056.13 143.71C1056.09 143.405 1055.92 143.138 1055.67 142.966L1046.36 136.082L1043.3 86.3281C1043.28 86.0611 1043.19 85.8132 1043 85.6225L1019.73 60.5834L1003.95 17.237C1003.7 16.4361 995.738 -9.89975 985.798 -43.2343L986.875 -43.5013C1001.72 -31.1248 1050.86 9.66617 1059.42 14.3002C1065.22 17.4468 1091.91 18.5147 1124.29 19.0868C1125.88 27.6684 1135.86 72.2543 1157.64 167.796ZM1054.88 -72.8121C1062.4 -86.9812 1069.86 -111.524 1073.37 -123.996L1114.77 -88.1444L1054.88 -72.8121ZM980.299 -53.7229L971.301 -51.4154L901.567 -43.4441C900.971 -52.7694 899.702 -71.8586 898.202 -93.2552L965.226 -105.002C970.128 -88.1254 975.377 -70.352 980.299 -53.7229ZM943.827 -252.929L943.384 -255.561L989.816 -254.417L1025.65 -235.289L1011.89 -210.632L1000.78 -214.045L1003.97 -223.599C1004.16 -224.21 1003.83 -224.858 1003.24 -225.049C1002.62 -225.259 1001.97 -224.915 1001.78 -224.324L998.564 -214.713L942.827 -231.838C942.981 -244.157 943.807 -252.453 943.827 -252.643C943.846 -252.739 943.846 -252.834 943.827 -252.929ZM1014.16 -209.926L1027.71 -234.202L1035 -230.312L1035 -203.538L1029.65 -205.178C1029.63 -205.178 1029.61 -205.197 1029.6 -205.197L1014.16 -209.926ZM1029.27 -178.975H1013.95L1013.95 -207.581L1028.12 -203.233L1029.27 -178.975ZM974.089 -219.824L974.089 -210.994H943.269C942.885 -217.631 942.769 -223.886 942.788 -229.435L974.089 -219.824ZM1047.23 -178.975L1047.23 -197.359L1062.7 -192.611L1064.2 -178.975H1047.23ZM1044.96 -198.065C1044.94 -197.969 1044.9 -197.893 1044.9 -197.798L1044.9 -178.975L1031.6 -178.975L1030.46 -202.508L1044.96 -198.065ZM1035 -232.925L991.22 -256.286L989.605 -271.389L1032.83 -277.701L1035 -269.158L1035 -232.925ZM989.355 -273.697L987.701 -289.201L1027.58 -298.412L1032.27 -279.971L989.355 -273.697ZM988.836 -256.743L943.019 -257.888L939.674 -278.121L985.413 -288.686L988.836 -256.743ZM940.654 -257.945L886.647 -259.28C886.532 -263.78 886.417 -268.319 886.301 -272.858L937.386 -277.625L940.654 -257.945ZM973.051 -40.0496C973.32 -40.0878 973.57 -40.1259 973.839 -40.2022L983.606 -42.7004C992.45 -12.9891 999.756 11.1727 1001.43 16.7031L959.419 26.3335C958.9 26.4479 958.516 26.9247 958.516 27.4586L958.516 81.0838H918.602C918.371 81.0838 918.14 81.16 917.948 81.2935L870.228 114.228L867.825 109.727C855.212 86.1564 845.407 61.1746 838.677 35.5062C832.025 6.4624 831.602 -11.6161 837.408 -19.7399C839.946 -23.306 844.003 -25.2893 850.194 -25.9949L973.051 -40.0496ZM839.658 76.0302L818.355 82.5903L790.246 8.08337C796.475 6.67218 801.993 6.84381 806.742 8.61734C818.567 13.0225 824.527 27.1916 827.43 38.2904C830.775 51.0674 834.871 63.6728 839.658 76.0302ZM822.008 4.72702C818.624 1.67581 814.894 -0.650726 810.818 -2.15729C806.512 -3.75916 801.878 -4.46478 796.918 -4.29315L821.412 -22.7149L826.046 -23.2488C822.585 -16.5934 821.239 -7.49692 822.008 4.72702ZM720.666 38.6337L699.324 15.7686C718.397 2.82001 733.374 -7.53506 733.932 -8.48856C734.816 -9.97604 737.777 -18.958 739.719 -24.9842C756.677 -24.0498 779.383 -23.8019 798.148 -23.8019C800.032 -23.8019 801.859 -23.8019 803.666 -23.8019L720.666 38.6337ZM732.009 -9.76627C730.952 -8.64111 716.686 1.17999 697.709 14.0523L660.545 -25.747L658.065 -39.5347C681.328 -34.0807 710.303 -27.7684 726.28 -25.9949C729.452 -25.6517 733.201 -25.3465 737.316 -25.0986C735.086 -18.1953 732.605 -10.7961 732.009 -9.76627ZM658.334 -25.0033C658.372 -24.7935 658.468 -24.5837 658.622 -24.4312L666.678 -15.8115L643.491 -6.69598L627.052 -47.0293C632.705 -45.6181 643.222 -43.0246 655.604 -40.1068L658.334 -25.0033ZM641.338 -5.85687L594.291 12.6221L591.945 8.92245L602.808 -36.2928L624.418 -47.3916L641.338 -5.85687ZM668.351 -13.9998L695.768 15.3682C675.388 29.1749 650.086 46.1664 629.782 59.7443L613.094 46.1664L613.171 44.431C613.229 43.2487 612.921 42.0854 612.286 41.0937L595.521 14.6053L668.351 -13.9998ZM612.959 49.0269L628.994 62.0709L658.468 85.4127L609.287 122.409L612.959 49.0269ZM681.328 82.6666L678.175 124.64C674.388 129.312 624.764 190.298 611.998 201.206C603.711 208.281 565.047 202.198 535.323 195.752C535.189 195.676 535.016 195.619 534.843 195.6C534.785 195.6 534.746 195.619 534.689 195.619C532.574 195.161 530.517 194.704 528.517 194.246C532.747 192.892 535.15 192.11 535.381 192.053C535.996 191.862 536.592 191.557 537.111 191.156L681.328 82.6666ZM533.497 197.679L531.536 221.859L468.396 229.182L464.224 215.318C490.852 206.451 512.155 199.528 524.287 195.619C526.94 196.21 530.036 196.916 533.497 197.679ZM466.473 230.765C466.627 231.261 467.069 231.585 467.589 231.585C467.627 231.585 467.685 231.585 467.723 231.585L531.362 224.205L528.113 264.538L464.339 272.738L437.441 224.3C446.016 221.402 454.245 218.656 462.051 216.062L466.473 230.765ZM477.779 301.687L478.932 321.043L423.137 343.241L374.725 245.754C395.836 238.393 416.331 231.394 435.211 225.025L477.779 301.687ZM388.356 278.44L349.788 291.561L338.714 258.455C350.057 254.412 361.363 250.426 372.514 246.536L388.356 278.44ZM347.962 293.391L352.115 305.787L293.147 325.505L279.477 280.1C298.089 273.12 317.334 266.102 336.561 259.237L347.962 293.391ZM296.031 343.203L222.836 366.277C219.299 355.56 211.685 335.746 201.822 310.898C223.99 301.42 249.869 291.217 277.266 280.92L296.031 343.203ZM136.164 389.333C151.103 382.773 163.1 377.452 172.713 373.143L183.403 405.753L147.796 422.115L136.164 389.333ZM152.987 443.645L140.413 448.088L133.472 431.383L146.488 425.28L152.987 443.645ZM145.7 423.106L131.472 429.781C130.915 430.048 130.665 430.696 130.896 431.268L138.682 449.995C138.875 450.434 139.298 450.701 139.759 450.701C139.894 450.701 140.028 450.682 140.144 450.644L153.756 445.838L163.1 472.155L125.858 485.37L106.882 434.072L96.7303 406.611C110.823 400.47 123.205 395.054 134.068 390.287L145.7 423.106ZM148.584 424.308L184.153 407.965L190.997 428.846C190.113 429.609 189.229 430.353 188.286 431.116C177.001 440.06 170.906 451.864 169.272 469.962L165.292 471.373L148.584 424.308ZM186.268 406.992L213.454 394.501C211.012 406.096 204.091 417.137 192.901 427.187L186.268 406.992ZM185.537 404.78L174.847 372.189C193.535 363.817 202.745 359.469 207.301 357.105C210.666 366.163 212.954 372.838 213.492 375.45C214.607 380.961 214.723 386.396 213.935 391.736L185.537 404.78ZM206.532 355.045C201.207 357.734 189.613 363.055 174.136 369.977L160.716 329.052C170.425 324.724 180.288 320.338 190.267 315.913C190.574 315.78 190.901 315.627 191.228 315.494C196.996 330.14 202.456 344.137 206.532 355.045ZM185.518 305.425C168.733 312.862 152.275 320.204 136.375 327.317L129.511 308.495C129.3 307.942 128.704 307.618 128.127 307.77L117.764 310.497L73.9662 208.453L113.861 188.334C117.783 191.443 122.417 195.047 127.762 199.185C137.202 206.527 149.949 216.405 152.948 219.361C154.121 222.889 157.832 232.176 169.56 261.354C174.636 273.997 180.827 289.387 186.941 304.757C186.479 305.005 185.999 305.234 185.518 305.425ZM158.582 330.025L172.002 370.95C161.293 375.736 148.853 381.228 135.395 387.159L121.09 346.826C133.184 341.372 145.719 335.765 158.582 330.025ZM133.26 388.075C121.398 393.281 108.785 398.811 95.9036 404.418L81.2338 364.79C93.1542 359.393 105.786 353.691 118.956 347.76L133.26 388.075ZM104.286 433.728L85.1945 440.365L75.4467 415.86C79.6765 414.01 83.9255 412.179 88.1746 410.329C90.3471 409.376 92.4813 408.461 94.577 407.545L104.286 433.728ZM83.4449 442.234C83.6179 442.691 84.0601 442.958 84.5215 442.958C84.6561 442.958 84.7715 442.939 84.9061 442.901L105.075 435.902L111.535 453.333L92.712 461.342C92.116 461.59 91.8468 462.276 92.0967 462.848C92.289 463.287 92.712 463.554 93.1542 463.554C93.308 463.554 93.4618 463.516 93.6156 463.459L112.323 455.487L123.667 486.133L78.5806 502.133C78.5614 502.038 78.5614 501.942 78.5229 501.847L49.4141 427.149C57.2008 423.774 65.2182 420.303 73.3126 416.775L83.4449 442.234ZM230.392 511.267L221.298 479.63L231.431 474.557L241.005 505.508L230.392 511.267ZM255.829 497.48L243.082 504.402L233.622 473.795C233.584 473.699 233.526 473.623 233.488 473.547L244.12 468.226L255.829 497.48ZM219.664 477.895C217.338 477.876 201.591 477.971 180.423 484.207C179.808 460.941 184.768 448.622 195.516 440.098C221.375 419.578 226.951 398.124 225.951 381.61L238.679 383.841L260.155 457.585L219.664 477.895ZM279.15 448.47C279.131 448.47 279.112 448.489 279.093 448.508C279.074 448.508 279.074 448.508 279.054 448.508L262.27 456.555L251.368 419.102L293.32 407.564L304.472 438.935L279.15 448.47ZM298.877 465.042C299.088 464.565 298.954 464.031 298.55 463.707L281.823 449.938L316.257 436.951L334.292 516.455L307.01 523.091L279.554 509.208L298.877 465.042ZM260.616 552.478L278.631 511.306L305.318 524.807L286.399 562.661L260.616 552.478ZM306.221 594.051L303.472 570.042C303.433 569.622 303.145 569.26 302.741 569.107L288.552 563.501L307.663 525.265L334.792 518.667L350.577 588.292L306.221 594.051ZM496.447 547.157C496.351 547.177 496.274 547.196 496.178 547.234L455.284 563.806C455.284 563.672 455.264 563.539 455.207 563.405L447.689 544.221C447.497 543.725 446.978 543.42 446.439 543.496L414.043 548.378L405.814 492.178L415.869 484.855C416.273 484.569 416.427 484.054 416.292 483.597L409.217 460.427C409.025 459.816 408.39 459.473 407.775 459.664C407.16 459.854 406.814 460.484 407.006 461.094L413.851 483.482L403.891 490.729C403.545 490.977 403.372 491.396 403.43 491.816L411.928 549.846C411.967 550.151 412.14 550.418 412.389 550.609C412.639 550.8 412.947 550.857 413.255 550.819L445.882 545.899L453.073 564.225C453.13 564.378 453.246 564.473 453.361 564.568L358.69 602.938L320.699 435.445L399.046 426.558C399.162 426.539 399.258 426.52 399.373 426.482L414.754 420.055L432.135 447.249L423.579 455.735C423.176 456.136 423.118 456.765 423.464 457.223L437.634 476.827C437.864 477.132 438.211 477.304 438.576 477.304C438.749 477.304 438.922 477.265 439.076 477.189L480.586 457.013L502.254 457.738L505.541 463.001L515.578 478.734L496.659 492.522L487.795 481.118C487.411 480.622 486.68 480.526 486.161 480.908C485.661 481.289 485.565 482.014 485.95 482.529L494.775 493.875L484.565 501.313C484.277 501.523 484.085 501.866 484.085 502.247L484.085 520.059C484.085 520.345 484.181 520.612 484.373 520.822L506.253 545.651L496.447 547.157ZM509.002 545.27L486.45 519.658L486.45 502.858L517.596 480.145L530.19 478.581L554.55 503.048L582.832 534.075L509.002 545.27ZM641.414 598.189L626.879 614.875L595.79 579.672L571.2 558.409L562.567 539.491L585.293 536.059C585.312 536.059 585.331 536.04 585.37 536.021C585.543 535.982 585.696 535.925 585.831 535.811C585.85 535.792 585.869 535.811 585.869 535.792L585.889 535.773L595.502 527.706L611.767 550.38L641.414 598.189ZM631.301 577.46L614.171 549.827L631.128 530.185L636.627 536.726C636.627 536.726 636.646 536.726 636.646 536.745C636.646 536.745 636.646 536.745 636.646 536.764L654.142 556.445L631.301 577.46ZM655.853 554.881L639.223 536.173L651.085 527.458L667.043 544.583L655.853 554.881ZM668.235 542.504L652.95 526.085L672.677 511.592L675.926 521.832L668.235 542.504ZM706.534 550.971L699.171 559.744L670.1 544.106L678.041 522.824L707.169 515.291L712.725 522.157L706.534 550.971ZM775.711 624.296L735.547 583.086L729.971 566.247C729.856 565.884 729.548 565.598 729.183 565.503L712.744 560.964L708.841 551.41L715.148 522.118C715.225 521.775 715.128 521.432 714.917 521.165L708.553 513.308C708.265 512.946 707.803 512.793 707.361 512.908L677.983 520.497L674.695 510.161L708.457 485.37L725.799 468.798L826.276 576.544L775.711 624.296ZM827.93 574.943L799.763 544.755L831.352 518.228L854.751 549.598L827.93 574.943ZM856.385 547.882L833.39 517.084L874.573 501.16L885.917 513.899L869.151 533.198C869.151 533.198 869.151 533.198 869.132 533.198L856.385 547.882ZM920.505 600.23L911.661 578.814C911.565 578.566 911.372 578.375 911.142 578.242L858.115 549.389L870.189 535.506L932.022 585.145L920.505 600.23ZM933.425 583.333L871.708 533.789L887.628 515.482L948.883 563.138L933.425 583.333ZM950.267 561.288L890.07 514.452L926.196 505.813L970.224 535.181L950.267 561.288ZM970.628 577.117L952.094 562.7L972.128 536.459L992.393 549.98C985.183 558.943 977.915 568.02 970.628 577.117ZM993.854 548.168L927.061 503.62C926.792 503.449 926.465 503.392 926.138 503.449L887.878 512.583L877.111 500.474L929.253 489.089C929.561 489.013 929.83 488.822 930.003 488.555C930.176 488.288 930.214 487.964 930.137 487.659L917.256 440.174C917.083 439.564 916.448 439.201 915.833 439.354L864.422 453.046L858.5 434.51L895.357 422.954H895.376H895.395L895.472 422.935L911.084 416.489C911.584 416.279 911.872 415.764 911.776 415.249L907.316 386.949C907.316 386.93 907.297 386.911 907.297 386.911C907.297 386.892 907.297 386.873 907.297 386.854L905.066 378.006C904.912 377.395 904.278 377.014 903.663 377.166C903.047 377.319 902.663 377.948 902.817 378.559L904.759 386.282L847.579 400.375L844.042 389.333L859.865 371.159L926.427 353.272L933.137 371.255C933.194 371.426 933.291 371.579 933.425 371.693L1007.45 440.918L1012.37 495.268C1012.41 495.592 1012.56 495.878 1012.81 496.069L1027.04 507.053C1016.21 520.402 1005.12 534.171 993.854 548.168ZM1071.14 534.514L1054.96 563.1L1053.11 566.437L1010.91 545.422C1021.77 531.939 1033.21 517.809 1044.73 503.678L1076.05 506.08L1071.14 534.514ZM1046.5 501.485C1062.2 482.224 1077.97 463.02 1092.54 445.571L1127.57 455.602L1196.42 475.32C1192.19 490.519 1188.64 503.277 1188.02 505.508L1180.56 511.801L1046.5 501.485ZM1179.45 550.762L1165.7 529.174L1189.83 506.996L1246.82 458.977C1251.95 461.189 1255.31 463.44 1257.58 466.014C1264.12 473.471 1297.96 510.295 1311.09 524.559L1234.63 600.916L1179.45 550.762ZM1257.97 622.179L1236.32 602.48L1251.56 587.262L1273.67 605.359L1257.97 622.179ZM1275.25 603.681L1253.2 585.622L1267.89 570.957L1294.5 583.105L1275.25 603.681ZM1269.62 569.241L1312.63 526.295C1314.11 527.897 1315.22 529.117 1315.8 529.746C1317.05 531.863 1321.16 538.843 1326.89 548.473L1308.59 587.033L1269.62 569.241ZM1332.45 535.143C1329.97 530.948 1327.62 527 1325.51 523.396C1325.3 523.053 1325.07 522.71 1324.78 522.423C1324.7 522.328 1323.22 520.726 1320.82 518.114L1321.14 517.789L1336.76 524.083L1332.45 535.143ZM1338.91 524.941L1354.98 531.406C1354.96 531.444 1354.93 531.482 1354.91 531.52L1345.22 556.597C1341.27 549.999 1337.47 543.61 1333.95 537.661L1338.91 524.941ZM1349.27 605.588L1310.7 587.987L1328.34 550.857C1335.41 562.757 1344.62 578.146 1353.83 593.364C1352.35 597.331 1350.81 601.431 1349.27 605.588ZM1359 579.539C1354.89 572.711 1350.75 565.827 1346.74 559.114L1357.1 532.34C1357.12 532.302 1357.1 532.283 1357.12 532.245L1374.46 539.224C1370.54 549.045 1365.19 563.062 1359 579.539ZM1407.34 616.973L1373.75 603.815C1371.44 600.058 1369.06 596.149 1366.63 592.182C1370 583.143 1373.15 574.752 1376 567.238L1419.99 586.347L1407.34 616.973ZM1420.87 584.192L1376.81 565.064C1380.05 556.502 1382.84 549.198 1385.07 543.534L1430.16 561.689L1420.87 584.192ZM1439.35 539.51L1431.06 559.553L1408.7 550.552C1408.82 550.457 1408.95 550.361 1409.01 550.209L1418.72 529.937L1439.35 539.51ZM1417.12 527.916L1406.93 549.236C1406.84 549.427 1406.82 549.617 1406.84 549.808L1385.94 541.398C1388.11 535.887 1389.63 532.283 1390.28 531.1C1391.76 528.965 1395.42 521.584 1400.2 511.401L1420.49 520.879L1417.12 527.916ZM1430.58 501.141C1430.18 501.179 1429.81 501.389 1429.64 501.771L1421.49 518.8L1401.18 509.303C1403.59 504.173 1406.24 498.433 1409.01 492.331L1430.58 501.141ZM1380.84 524.445C1380.13 525.379 1378.17 529.918 1375.29 537.107L1322.91 516.016L1388.69 450.338C1399.65 449.614 1408.95 450.377 1414.87 451.158C1400.2 484.016 1383.57 520.555 1380.84 524.445ZM1438.43 397.4C1437.91 398.754 1437.46 399.898 1437.1 400.756C1434.43 407.049 1427.7 422.401 1419.76 440.25C1413.53 439.221 1401.74 437.848 1387.32 438.896C1413.6 428.904 1428.06 413.743 1438.43 397.4ZM1372.98 452.379C1377.17 451.54 1381.23 450.987 1385.13 450.625L1320.57 515.081L1316.53 513.461C1301.86 497.499 1272.23 465.232 1266.31 458.481C1264.56 456.479 1262.49 454.686 1259.97 453.008C1298.78 455.201 1352.21 456.498 1372.98 452.379ZM1336.72 329.243L1283.71 400.852C1283.63 400.947 1283.58 401.08 1283.54 401.195L1271.12 442.081C1251.01 441.109 1233.18 439.812 1223.34 438.629C1220.67 438.305 1215.98 437.638 1209.63 436.379C1212.59 425.719 1214.75 417.938 1214.92 417.252C1215.17 416.241 1216.4 403.064 1216.07 387.674L1275.94 332.447C1281.6 330.769 1285.04 329.777 1285.21 329.739C1286.35 329.415 1287.34 328.747 1288.09 327.851L1308.61 302.85L1336.72 329.243ZM1280.25 319.193C1272.12 321.558 1239.01 331.246 1207.73 341.696C1203.08 328.557 1191.48 295.432 1190.1 289.12C1189.71 287.384 1186.73 274.359 1182.23 254.66C1181.56 251.742 1180.85 248.634 1180.12 245.392L1341.74 205.669L1350.91 233.13L1280.25 319.193ZM1432.54 74.619L1358.54 219.38L1318.41 99.3148L1432.54 74.619ZM1327.78 -69.3985C1339.1 -58.8718 1404.7 20.498 1416.8 35.1439L1407.39 68.3068L1315.24 88.2541L1271.81 -99.4339C1290.46 -91.0049 1319.66 -76.9503 1327.78 -69.3985ZM1280.37 -11.0439C1268.62 -7.85925 1251.97 -3.41589 1235.07 0.913025L1235.07 -37.4561C1235.07 -37.5705 1235.05 -37.704 1235.01 -37.8184L1218.19 -88.9835L1266.35 -71.6106L1280.37 -11.0439ZM1082.7 -321.353L1157.51 -315.689L1169.1 -283.136L1125.29 -280.161C1125.21 -280.161 1125.11 -280.142 1125.04 -280.123L1082.7 -267.651L1082.7 -321.353ZM1082.7 -265.23L1125.57 -277.854L1169.91 -280.867L1173.77 -270.035L1082.7 -225.869L1082.7 -265.23ZM1082.7 -223.313L1174.54 -267.861L1178.68 -256.267C1178.7 -256.209 1178.73 -256.152 1178.75 -256.095C1180.54 -251.289 1190.14 -232.829 1202.27 -210.079L1105.73 -162.346C1105.16 -162.06 1104.92 -161.374 1105.21 -160.802C1105.42 -160.401 1105.83 -160.172 1106.25 -160.172C1106.42 -160.172 1106.6 -160.21 1106.77 -160.287L1203.34 -208.038C1222.36 -172.453 1247.1 -127.295 1258.06 -107.329L1263.25 -84.9216L1198.13 -108.416C1197.04 -108.816 1195.83 -108.874 1194.71 -108.588L1120.21 -89.5175L1074.34 -129.241L1070.18 -166.904L1095.43 -179.357C1095.95 -179.605 1096.2 -180.196 1096 -180.749L1082.68 -220.834L1082.68 -223.313H1082.7ZM1080.39 -321.525L1080.39 -224.496C1080.22 -224.172 1080.18 -223.79 1080.35 -223.447C1080.37 -223.428 1080.39 -223.409 1080.39 -223.39L1080.39 -220.663C1080.39 -220.548 1080.41 -220.415 1080.45 -220.3L1093.5 -180.997L1069.93 -169.364L1055.53 -300.185C1055.61 -300.147 1055.67 -300.109 1055.74 -300.09L1070.72 -296.772L1070.72 -283.518L1058.84 -284.776C1058.2 -284.834 1057.63 -284.395 1057.57 -283.747C1057.49 -283.117 1057.95 -282.545 1058.61 -282.488L1071.78 -281.077C1071.82 -281.077 1071.86 -281.077 1071.89 -281.077C1072.18 -281.077 1072.45 -281.172 1072.66 -281.363C1072.91 -281.573 1073.05 -281.897 1073.05 -282.221L1073.05 -297.668C1073.05 -298.202 1072.66 -298.679 1072.14 -298.793L1056.26 -302.302C1055.92 -302.378 1055.59 -302.283 1055.34 -302.111L1052.97 -323.584L1080.39 -321.525ZM1054.88 -263.532L1037.31 -267.041L1037.31 -269.33C1037.31 -269.425 1037.29 -269.52 1037.27 -269.616L1029.81 -298.945L1050.46 -303.713L1054.88 -263.532ZM1048.28 -323.432L1050.21 -305.982L1029.25 -301.139L1024.56 -319.579L1048.28 -323.432ZM1022.27 -319.217L1027 -300.643L987.451 -291.508L985.125 -313.191L1022.27 -319.217ZM982.818 -312.809L985.163 -290.974L939.289 -280.371L935.194 -305.086L982.818 -312.809ZM932.906 -304.724L937.021 -279.875L886.244 -275.146C886.07 -282.564 885.917 -289.944 885.763 -297.077L932.906 -304.724ZM884.09 -203.328H846.618L844.042 -221.445L883.187 -222.76C883.456 -215.533 883.763 -208.954 884.09 -203.328ZM881.36 -286.035L877.707 -296.562H881.129C881.206 -293.11 881.283 -289.582 881.36 -286.035ZM880.553 -327.532C880.687 -319.007 880.879 -309.224 881.072 -298.85H876.899L867.152 -326.998L880.553 -327.532ZM825.661 -325.358L864.748 -326.902L874.458 -298.85H824.238L825.661 -325.358ZM774.115 -272.877C782.671 -278.75 804.281 -294.483 807.108 -296.543H822.95C822.969 -296.543 822.989 -296.543 823.008 -296.543H823.027L875.265 -296.562L881.533 -278.464C881.956 -260.004 882.475 -241.106 883.09 -225.068L842.677 -223.714C842.35 -223.695 842.042 -223.561 841.831 -223.294C841.619 -223.046 841.523 -222.722 841.561 -222.398L844.465 -202.031C844.541 -201.459 845.041 -201.04 845.618 -201.04H884.244C884.667 -194.079 885.128 -188.816 885.628 -185.993C888.705 -168.468 895.357 -67.9301 896.991 -42.9292L832.371 -35.5491C829.968 -35.5109 812.164 -35.263 791.246 -35.3202L791.246 -85.036C791.246 -85.1695 791.227 -85.303 791.169 -85.4365L728.452 -254.855C734.874 -256.915 765.675 -267.079 774.115 -272.877ZM591.599 -191.543C597.001 -196.901 608.922 -218.985 610.71 -222.322L702.324 -255.79L726.107 -254.436L788.9 -84.8072L788.9 -35.3011C766.598 -35.3965 741.353 -35.8923 727.568 -37.3989C702.612 -40.145 642.357 -55.0387 628.475 -58.5095L598.405 -137.65C598.117 -138.413 597.655 -139.119 597.078 -139.691L563.355 -173.159C572.603 -178.556 587.638 -187.614 591.599 -191.543ZM277.42 -224.133L280.669 -298.087L332.235 -284.624C332.331 -284.605 332.427 -284.586 332.523 -284.586C332.734 -284.586 332.946 -284.643 333.138 -284.757C333.407 -284.929 333.6 -285.196 333.657 -285.501L339.002 -311.417L384.665 -299.727L382.069 -285.94C374.533 -274.593 368.726 -265.764 366.515 -262.274L299.973 -218.412L277.42 -224.133ZM359.863 -244.081C355.768 -231.761 349.058 -211.662 341.925 -191.447L302.261 -206.112L359.863 -244.081ZM299.857 -204.548L341.136 -189.292C331.081 -160.954 320.372 -132.959 314.989 -126.647C313.604 -125.007 311.835 -123.329 309.836 -121.632L268.73 -147.376L265.346 -164.902L262.462 -179.929L299.857 -204.548ZM307.971 -120.068C292.436 -107.825 264.558 -95.2385 255.963 -92.6259C254.848 -92.2826 251.791 -90.738 247.196 -88.2588C238.352 -88.1826 226.489 -87.1718 215.953 -86.1611C226.874 -94.2087 240.044 -115.3 241.255 -117.264L267.884 -145.183L307.971 -120.068ZM266.384 -147.357L239.544 -136.354L235.391 -143.124L263.443 -162.69L266.384 -147.357ZM229.758 -215.609L215.742 -217.65L204.86 -255.199L215.011 -258.555L229.758 -215.609ZM198.419 -306.631L205.879 -293.625C204.61 -292.08 204.225 -290.021 204.879 -288.152L214.281 -260.729L204.225 -257.411L201.572 -266.603C201.437 -267.041 201.053 -267.384 200.591 -267.423L189.056 -268.738L175.789 -287.542L198.419 -306.631ZM173.982 -286.054L187.421 -267.003C187.614 -266.736 187.902 -266.564 188.248 -266.526L199.534 -265.249L213.704 -216.315C213.838 -215.876 214.204 -215.552 214.646 -215.495L230.585 -213.168L241.947 -180.081C237.564 -177.126 229.296 -171.729 218.53 -165.474L196.496 -169.059C196.535 -169.231 196.554 -169.402 196.515 -169.593L179.231 -248.944C179.173 -249.249 178.962 -249.516 178.692 -249.687C178.423 -249.859 178.096 -249.897 177.789 -249.821L150.487 -242.403L143.22 -260.157L173.982 -286.054ZM185.133 -210.975L194.189 -169.44L152.871 -176.153L146.777 -202.413L185.133 -210.975ZM146.258 -204.644L138.798 -236.815L177.231 -247.265L184.653 -213.225L146.258 -204.644ZM153.006 -173.807L215.376 -163.662C198.015 -153.784 174.963 -142.284 151.256 -134.981L153.006 -173.807ZM120.783 -292.271L132.838 -289.258L134.51 -256.362L102.075 -252.872L95.1922 -282.812L120.783 -292.271ZM92.9043 -282.45L99.7681 -252.605L49.4334 -247.208L51.1445 -286.169L92.9043 -282.45ZM45.9149 -323.851L57.9314 -321.353L49.1642 -288.648L39.2818 -289.525L45.9149 -323.851ZM15.2873 -276.405L38.109 -287.332L48.8181 -286.378L47.1262 -247.399L12.7686 -256.286L15.2873 -276.405ZM2.23252 -224.267L5.23184 -255.847L26.9192 -250.24L23.247 -220.148L2.23252 -224.267ZM41.3006 -174.666L44.819 -213.874L75.6582 -215.437L81.9452 -175.276L41.3006 -174.666ZM77.7923 -216.811C77.6962 -217.402 77.1771 -217.802 76.581 -217.783L43.8385 -216.124L25.5349 -219.709L29.1879 -249.668L47.9337 -244.825C47.9914 -244.805 48.0683 -244.805 48.126 -244.805C48.1452 -244.805 48.1644 -244.786 48.1644 -244.786C48.1836 -244.786 48.2029 -244.786 48.2221 -244.786C48.2605 -244.786 48.299 -244.786 48.3374 -244.786L135.856 -254.188C135.875 -254.188 135.895 -254.207 135.914 -254.207C136.106 -254.245 136.26 -254.302 136.394 -254.417C136.414 -254.436 136.452 -254.436 136.471 -254.455L141.355 -258.574L148.219 -241.773L137.067 -238.741C136.471 -238.57 136.106 -237.978 136.241 -237.368L150.41 -176.267L84.2524 -175.295L77.7923 -216.811ZM115.303 -127.867C107.766 -127.372 99.8258 -127.524 91.6738 -128.115L84.6369 -173.006L150.68 -173.998L148.892 -134.237C137.644 -130.919 126.262 -128.592 115.303 -127.867ZM147.776 -121.956C199.649 -136.01 248.965 -170.813 252.157 -173.083L260.405 -178.518L262.981 -165.15L233.199 -144.363C232.699 -144.02 232.565 -143.333 232.873 -142.818L238.121 -134.294C238.41 -133.817 239.025 -133.608 239.563 -133.836L263.173 -143.524L239.525 -118.733C239.467 -118.676 239.409 -118.618 239.371 -118.542C239.179 -118.237 221.01 -88.831 210.224 -85.589C210.07 -85.57 209.916 -85.5509 209.782 -85.5509C209.224 -85.4937 208.666 -85.4365 208.109 -85.3983L208.109 -106.623C208.109 -107.157 207.744 -107.615 207.224 -107.749L147.776 -121.956ZM182.499 -111.296L205.783 -105.727L205.783 -85.1886C201.322 -84.769 197.573 -84.4258 195.323 -84.3113C192.189 -84.1779 185.768 -85.2076 178.443 -86.6951L182.499 -111.296ZM36.3402 9.51361L39.0319 -2.86288C39.0895 -3.09174 39.0703 -3.32056 38.9742 -3.53033L24.4198 -39.1914L25.3811 -63.0291L109.054 -95.3339L141.643 -93.0645C144.566 -92.2826 185.287 -81.5653 195.419 -82.0039C198.361 -82.1374 203.744 -82.6522 209.974 -83.2625C219.683 -84.1969 232.565 -85.4555 242.793 -85.8369C205.167 -64.9933 98.999 -1.71866 45.8765 30.0522L36.3402 9.51361ZM50.7792 40.5598C137.702 -11.4254 251.157 -78.6094 259.366 -81.6225C269.614 -84.75 309.74 -102.581 323.852 -119.21C333.427 -130.499 353.153 -187.328 371.168 -241.43C373.456 -248.276 375.436 -254.245 375.975 -255.637C377.205 -257.678 384.53 -268.777 394.682 -284.052L482.47 -276.252L515.482 -204.854C515.77 -204.224 516.174 -203.671 516.654 -203.175L587.965 -132.444L616.843 -56.4308L595.079 -45.2558C593.579 -44.493 592.503 -43.1008 592.099 -41.4799L580.063 8.63638C579.698 10.1429 579.967 11.7257 580.794 13.0225L601.481 45.7087L597.194 131.524L530.843 181.431C515.058 186.484 309.451 252.429 197.534 300.238C192.209 286.869 186.383 272.357 180.288 257.196C172.54 237.935 165.215 219.704 163.946 216.005C163.773 212.916 161.639 210.989 134.876 190.222C123.936 181.717 110.304 171.152 107.978 168.52C104.959 165.088 97.6147 146.227 92.289 129.941C92.2121 129.732 92.1352 129.522 92.0391 129.312L50.7792 40.5598ZM10.0961 195.848L32.6679 184.387C32.8986 184.272 33.0909 184.062 33.2063 183.834L47.3761 152.025C47.4146 151.929 47.453 151.834 47.453 151.739L50.1832 133.66L76.7733 123.801L81.4261 133.775C83.5987 140.373 93.3272 169.245 99.3067 176.034C101.018 177.979 105.305 181.564 111.9 186.809L71.9859 206.927C71.4476 207.194 71.1976 207.843 71.4476 208.396L104.498 285.42L55.9511 304.09L10.0961 195.848ZM56.8163 306.226L105.382 287.537L115.553 311.26L66.8717 329.987L56.8163 306.226ZM67.7754 332.085L117.456 312.976L127.704 310.268L134.26 328.252C114.015 337.329 94.75 346.006 77.0617 354.015L67.7754 332.085ZM33.5716 386.473C46.9147 380.37 62.2766 373.391 79.1189 365.763L93.7694 405.371C78.7728 411.912 63.4686 418.568 48.5682 425.013L33.5716 386.473ZM2.48246 447.459C15.4026 441.89 30.803 435.235 47.2992 428.084L76.3696 502.705C76.408 502.781 76.4657 502.819 76.5234 502.877L27.1499 520.402L2.48246 447.459ZM27.8805 522.576L63.584 509.914C63.6032 509.99 63.6032 510.066 63.6224 510.142L71.0054 528.984L35.0712 543.801L27.8805 522.576Z" fill="#6775FF"/>
<path d="M488 432L517.154 478.942C517.364 479.281 517.755 479.462 518.15 479.404L530.483 477.577C530.807 477.529 531.134 477.642 531.358 477.881L584.352 534.309C584.715 534.697 585.318 534.732 585.725 534.39L688.74 447.64C689.16 447.286 689.788 447.338 690.145 447.756L714.812 476.693C715.185 477.131 715.85 477.164 716.265 476.766L825.763 371.707C826.167 371.319 826.812 371.339 827.191 371.752L842.716 388.647C843.129 389.097 843.845 389.074 844.229 388.6L858.299 371.248C858.43 371.087 858.608 370.97 858.808 370.915L925.836 352.323C926.441 352.155 926.743 351.479 926.466 350.917L891.961 280.936C891.71 280.425 891.934 279.808 892.454 279.579L929.761 263.106C929.918 263.036 930.054 262.928 930.157 262.791L951.797 233.937C952.166 233.445 952.008 232.74 951.464 232.453L926.402 219.212C926.147 219.077 925.962 218.839 925.896 218.558L913.617 166.496C913.543 166.184 913.623 165.857 913.832 165.614L934.57 141.5C934.831 141.197 935.247 141.078 935.629 141.198L1018.86 167.455C1018.95 167.485 1019.05 167.501 1019.15 167.502L1159.21 168.992C1159.68 168.997 1160.07 169.316 1160.18 169.766L1177.27 243.503C1177.4 244.05 1177.95 244.385 1178.49 244.246L1283 217.5" stroke="white" stroke-width="2" stroke-linecap="round" stroke-linejoin="round" stroke-dasharray="10 10"/>
<circle cx="1285" cy="217" r="4" fill="white"/>
<circle cx="487" cy="430" r="4" fill="white"/>
<path d="M1296.59 190.175L1285.83 180.323C1285.6 180.115 1285.3 180 1285 180C1284.69 180 1284.39 180.115 1284.17 180.323L1273.4 190.175C1273.22 190.343 1273.09 190.562 1273.03 190.805C1272.98 191.047 1272.99 191.3 1273.08 191.532C1273.17 191.764 1273.33 191.964 1273.53 192.105C1273.74 192.245 1273.98 192.321 1274.23 192.322H1275.95V202.193C1275.95 202.286 1275.96 202.378 1276 202.465C1276.03 202.551 1276.09 202.629 1276.15 202.695C1276.22 202.761 1276.3 202.814 1276.38 202.849C1276.47 202.885 1276.56 202.903 1276.65 202.902H1281.46C1281.55 202.903 1281.64 202.885 1281.73 202.849C1281.81 202.814 1281.89 202.762 1281.96 202.696C1282.02 202.63 1282.07 202.552 1282.11 202.466C1282.15 202.38 1282.16 202.288 1282.16 202.194V196.207H1287.82V202.201C1287.82 202.294 1287.84 202.386 1287.88 202.472C1287.91 202.558 1287.96 202.637 1288.03 202.702C1288.1 202.768 1288.17 202.82 1288.26 202.856C1288.35 202.891 1288.44 202.909 1288.53 202.909H1293.34C1293.43 202.909 1293.52 202.891 1293.61 202.856C1293.7 202.82 1293.77 202.768 1293.84 202.702C1293.9 202.636 1293.96 202.558 1293.99 202.472C1294.03 202.386 1294.05 202.294 1294.05 202.201V192.326H1295.77C1296.02 192.326 1296.26 192.251 1296.46 192.111C1296.67 191.97 1296.83 191.77 1296.92 191.537C1297.01 191.304 1297.02 191.049 1296.97 190.806C1296.91 190.563 1296.78 190.343 1296.6 190.175H1296.59Z" fill="white"/>
<path d="M492.339 386H482.24C481.815 386 481.393 386.084 481 386.246C480.607 386.409 480.25 386.648 479.949 386.949C479.648 387.25 479.409 387.607 479.246 388C479.084 388.393 479 388.815 479 389.24V412.76C479 413.619 479.341 414.443 479.949 415.051C480.557 415.659 481.381 416 482.24 416H492.339C493.198 416 494.022 415.658 494.63 415.051C495.238 414.443 495.579 413.619 495.579 412.76V389.24C495.579 388.381 495.238 387.557 494.63 386.949C494.023 386.341 493.199 386 492.339 386ZM487.291 414.093C487.035 414.093 486.784 414.017 486.57 413.874C486.357 413.732 486.191 413.529 486.092 413.292C485.994 413.055 485.968 412.794 486.018 412.542C486.069 412.29 486.192 412.059 486.374 411.878C486.555 411.696 486.786 411.572 487.038 411.522C487.29 411.472 487.551 411.498 487.788 411.596C488.025 411.694 488.228 411.861 488.371 412.074C488.513 412.288 488.589 412.539 488.589 412.795C488.589 413.14 488.453 413.47 488.209 413.713C487.966 413.956 487.636 414.093 487.291 414.093ZM490.297 388.517H484.286C483.559 388.517 483.559 387.388 484.286 387.388H490.297C491.024 387.388 491.024 388.517 490.297 388.517Z" fill="white"/>
</svg>
