<svg width="70" height="70" viewBox="0 0 70 70" fill="none" xmlns="http://www.w3.org/2000/svg">
<path fill-rule="evenodd" clip-rule="evenodd" d="M8.17393 44H7C5.34315 44 4 42.6569 4 41V36.5H6C6.55228 36.5 7 36.0523 7 35.5C7 34.9477 6.55228 34.5 6 34.5H4V34.0139C4 33.4216 4.17531 32.8426 4.50385 32.3498L11.1798 22.3359C11.7362 21.5013 12.6729 21 13.6759 21H30V29H26C25.4477 29 25 29.4477 25 30C25 30.5523 25.4477 31 26 31L52 31C52.1403 31 52.2739 30.9711 52.3951 30.9189C52.9229 31.1221 53.4769 31.262 54.0458 31.3328L63.3704 32.493C64.5367 32.6381 65.4772 33.4401 65.8394 34.5H63.5C62.9477 34.5 62.5 34.9477 62.5 35.5C62.5 36.0523 62.9477 36.5 63.5 36.5H66V41C66 42.6569 64.6569 44 63 44H61.8261C61.1489 41.1333 58.5736 39 55.5 39C52.4264 39 49.8511 41.1333 49.1739 44H20.8261C20.1489 41.1333 17.5736 39 14.5 39C11.4264 39 8.8511 41.1333 8.17393 44ZM32 29L49.6402 29L43.0228 21.9473C42.4557 21.3429 41.6639 21 40.8351 21H32V29ZM63 46H61.9811C61.7257 49.3562 58.9216 52 55.5 52C52.0784 52 49.2743 49.3562 49.0189 46H20.9811C20.7257 49.3562 17.9216 52 14.5 52C11.0784 52 8.27426 49.3562 8.01894 46H7C4.23858 46 2 43.7614 2 41V34.0139C2 33.0268 2.29219 32.0617 2.83975 31.2404L9.51567 21.2265C10.443 19.8355 12.0042 19 13.6759 19H40.8351C42.2164 19 43.5362 19.5715 44.4813 20.5788L51.2639 27.8075C52.0627 28.6589 53.1342 29.2039 54.2928 29.3481L63.6174 30.5083C66.1208 30.8197 68 32.9473 68 35.47V41C68 43.7614 65.7614 46 63 46ZM14.5 50C16.9853 50 19 47.9853 19 45.5C19 43.0147 16.9853 41 14.5 41C12.0147 41 10 43.0147 10 45.5C10 47.9853 12.0147 50 14.5 50ZM55.5 50C57.9853 50 60 47.9853 60 45.5C60 43.0147 57.9853 41 55.5 41C53.0147 41 51 43.0147 51 45.5C51 47.9853 53.0147 50 55.5 50ZM33 34.5C32.4477 34.5 32 34.9477 32 35.5C32 36.0523 32.4477 36.5 33 36.5H36C36.5523 36.5 37 36.0523 37 35.5C37 34.9477 36.5523 34.5 36 34.5H33Z" fill="#41456B"/>
</svg>
