<svg width="70" height="70" viewBox="0 0 70 70" fill="none" xmlns="http://www.w3.org/2000/svg">
<path fill-rule="evenodd" clip-rule="evenodd" d="M26.2387 13.2703C25.7093 12.964 25.0401 12.8957 24.4113 13.1814L8.17278 20.5585C7.45858 20.8829 7 21.5949 7 22.3794V54.8288C7 56.241 8.42398 57.2084 9.73684 56.6881L26.2624 50.139C26.339 50.1818 26.4189 50.2199 26.502 50.2528L42.7405 56.6881C43.346 56.928 43.9752 56.8516 44.4774 56.5609C44.9795 56.8516 45.6087 56.928 46.2142 56.6881L62.4527 50.2528C63.2152 49.9506 63.7159 49.2136 63.7159 48.3935V15.0023C63.7159 13.5479 62.2128 12.5799 60.8887 13.1814L44.6501 20.5585C44.5907 20.5854 44.5331 20.6151 44.4774 20.6473C44.4216 20.6151 44.364 20.5854 44.3046 20.5585L28.0661 13.1814C27.4372 12.8957 26.7681 12.964 26.2387 13.2703ZM27.2388 34.3438L27.5378 34.4639C28.0503 34.6699 28.6326 34.4214 28.8386 33.909C29.0445 33.3965 28.796 32.8141 28.2836 32.6082L27.2388 32.1883V15.0023L43.4774 22.3794V38.7143L41.9625 38.1055C41.45 37.8996 40.8677 38.148 40.6617 38.6605C40.4558 39.1729 40.7042 39.7553 41.2167 39.9613L43.4774 40.8698V54.8288L27.2388 48.3935V34.3438ZM45.4774 22.3794V38.3793L45.8447 38.2606C46.3703 38.0909 46.934 38.3793 47.1037 38.9048C47.2735 39.4303 46.9851 39.994 46.4595 40.1638L45.4774 40.4811V54.8288L61.7159 48.3935V15.0023L45.4774 22.3794ZM25.2385 31.6966V15.0023L9 22.3794L8.58639 21.4689L9 22.3794V54.8288L25.2385 48.3935V33.8051L24.54 34.0384C24.0161 34.2133 23.4497 33.9304 23.2747 33.4066C23.0998 32.8827 23.3827 32.3163 23.9065 32.1413L25.2385 31.6966ZM21.7247 34.9784C22.2486 34.8035 22.5314 34.2371 22.3565 33.7132C22.1816 33.1894 21.6151 32.9065 21.0913 33.0814L19.6836 33.5514C19.6078 33.5767 19.5371 33.6102 19.4721 33.6506C18.854 32.6595 17.754 32 16.5 32C14.567 32 13 33.567 13 35.5C13 37.433 14.567 39 16.5 39C18.4329 39 19.9999 37.4331 20 35.5002C20.1051 35.5003 20.2119 35.4836 20.3171 35.4485L21.7247 34.9784ZM32.8432 34.4406C32.3308 34.2347 31.7484 34.4832 31.5425 34.9956C31.3365 35.5081 31.585 36.0904 32.0974 36.2964L36.6571 38.1288C37.1695 38.3348 37.7519 38.0863 37.9578 37.5738C38.1638 37.0614 37.9153 36.479 37.4029 36.2731L32.8432 34.4406ZM53.3078 37.9515C53.8333 37.7818 54.1217 37.2181 53.9519 36.6926C53.7822 36.167 53.2185 35.8786 52.693 36.0484L50.4102 36.7858C49.8847 36.9556 49.5963 37.5192 49.766 38.0448C49.9358 38.5703 50.4995 38.8587 51.025 38.689L53.3078 37.9515ZM16.5 37C17.3284 37 18 36.3284 18 35.5C18 34.6716 17.3284 34 16.5 34C15.6716 34 15 34.6716 15 35.5C15 36.3284 15.6716 37 16.5 37ZM57 29.5C57 29.4915 57 29.4916 56.9983 29.5009C56.9925 29.5323 56.9677 29.6683 56.8599 29.9325C56.7323 30.2454 56.5367 30.6223 56.2852 31.0419C56.0438 31.4447 55.7719 31.8525 55.5 32.237C55.2281 31.8525 54.9562 31.4447 54.7148 31.0419C54.4633 30.6223 54.2677 30.2454 54.1401 29.9325C54.0323 29.6683 54.0075 29.5323 54.0017 29.5009C54 29.4916 54 29.4915 54 29.5C54 28.6716 54.6716 28 55.5 28C56.3284 28 57 28.6716 57 29.5ZM59 29.5C59 30.8637 57.2581 33.2895 56.232 34.6001C55.8549 35.0817 55.1451 35.0817 54.768 34.6001C53.7419 33.2895 52 30.8637 52 29.5C52 27.567 53.567 26 55.5 26C57.433 26 59 27.567 59 29.5Z" fill="#41456B"/>
</svg>
