<svg width="70" height="70" viewBox="0 0 70 70" fill="none" xmlns="http://www.w3.org/2000/svg">
<path fill-rule="evenodd" clip-rule="evenodd" d="M14 13C14 10.7909 15.7909 9 18 9H51C53.2091 9 55 10.7909 55 13V49C55 49.5523 54.5523 50 54 50C53.4477 50 53 49.5523 53 49V13C53 11.8954 52.1046 11 51 11H18C16.8954 11 16 11.8954 16 13V57C16 58.1046 16.8954 59 18 59H38.8875C39.4398 59 39.8875 59.4477 39.8875 60C39.8875 60.5523 39.4398 61 38.8875 61H18C15.7909 61 14 59.2091 14 57V13ZM55.2071 52.2929C55.5976 52.6834 55.5976 53.3166 55.2071 53.7071L47.7071 61.2071C47.3166 61.5976 46.6834 61.5976 46.2929 61.2071L42.2929 57.2071C41.9024 56.8166 41.9024 56.1834 42.2929 55.7929C42.6834 55.4024 43.3166 55.4024 43.7071 55.7929L47 59.0858L53.7929 52.2929C54.1834 51.9024 54.8166 51.9024 55.2071 52.2929ZM21 16C20.4477 16 20 16.4477 20 17C20 17.5523 20.4477 18 21 18H35C35.5523 18 36 17.5523 36 17C36 16.4477 35.5523 16 35 16H21ZM20 27C20 26.4477 20.4477 26 21 26H45C45.5523 26 46 26.4477 46 27C46 27.5523 45.5523 28 45 28H21C20.4477 28 20 27.5523 20 27ZM21 32C20.4477 32 20 32.4477 20 33C20 33.5523 20.4477 34 21 34H41C41.5523 34 42 33.5523 42 33C42 32.4477 41.5523 32 41 32H21ZM20 45C20 44.4477 20.4477 44 21 44H27C27.5523 44 28 44.4477 28 45C28 45.5523 27.5523 46 27 46H21C20.4477 46 20 45.5523 20 45ZM31 44C30.4477 44 30 44.4477 30 45C30 45.5523 30.4477 46 31 46H41C41.5523 46 42 45.5523 42 45C42 44.4477 41.5523 44 41 44H31Z" fill="#41456B"/>
</svg>
