<svg aria-hidden="true" xmlns="http://www.w3.org/2000/svg" xmlns:xlink="http://www.w3.org/1999/xlink"><symbol viewBox="0 0 37 30" id="burger-menu" xmlns="http://www.w3.org/2000/svg">
<path fill-rule="evenodd" clip-rule="evenodd" d="M0 2C0 0.895431 0.89543 0 2 0H35C36.1046 0 37 0.895431 37 2C37 3.10457 36.1046 4 35 4H2C0.895432 4 0 3.10457 0 2ZM0 15C0 13.8954 0.89543 13 2 13H35C36.1046 13 37 13.8954 37 15C37 16.1046 36.1046 17 35 17H2C0.895432 17 0 16.1046 0 15ZM2 26C0.89543 26 0 26.8954 0 28C0 29.1046 0.895432 30 2 30H35C36.1046 30 37 29.1046 37 28C37 26.8954 36.1046 26 35 26H2Z"/>
</symbol><symbol viewBox="0 0 24 24" id="close" xmlns="http://www.w3.org/2000/svg">
<path d="M1 1L23 23" stroke-width="2" stroke-linecap="round" stroke-linejoin="round"/>
<path d="M23 1L0.999999 23" stroke-width="2" stroke-linecap="round" stroke-linejoin="round"/>
</symbol><symbol viewBox="0 0 43 32" id="logo" xmlns="http://www.w3.org/2000/svg">
<path fill-rule="evenodd" clip-rule="evenodd" d="M28.6714 28.2711L22.8768 18.7599H0.40918L9.91935 3.01497C10.4754 2.09453 11.259 1.33342 12.1945 0.805256C13.1299 0.277086 14.1855 -0.000274658 15.2592 -9.53674e-06H20.6972C21.7786 0.000125885 22.8414 0.281881 23.7815 0.817633C24.7215 1.35338 25.5064 2.12474 26.0594 3.05607L35.3805 18.7599L42.9999 31.2665H33.9979C32.9283 31.2665 31.8767 30.991 30.9439 30.4665C30.0112 29.942 29.2286 29.186 28.6714 28.2711Z"/>
</symbol></svg>