<svg aria-hidden="true" xmlns="http://www.w3.org/2000/svg" xmlns:xlink="http://www.w3.org/1999/xlink"><symbol viewBox="0 0 53 53" id="arrow-slider" xmlns="http://www.w3.org/2000/svg">
<circle cx="26.5" cy="26.5" r="26.5" transform="rotate(-180 26.5 26.5)"/>
<path d="M30 38L19 27L30 16" stroke-width="2" stroke-linecap="round" stroke-linejoin="round"/>
</symbol><symbol viewBox="0 0 37 30" id="burger-menu" xmlns="http://www.w3.org/2000/svg">
<path fill-rule="evenodd" clip-rule="evenodd" d="M0 2C0 0.895431 0.89543 0 2 0H35C36.1046 0 37 0.895431 37 2C37 3.10457 36.1046 4 35 4H2C0.895432 4 0 3.10457 0 2ZM0 15C0 13.8954 0.89543 13 2 13H35C36.1046 13 37 13.8954 37 15C37 16.1046 36.1046 17 35 17H2C0.895432 17 0 16.1046 0 15ZM2 26C0.89543 26 0 26.8954 0 28C0 29.1046 0.895432 30 2 30H35C36.1046 30 37 29.1046 37 28C37 26.8954 36.1046 26 35 26H2Z"/>
</symbol><symbol viewBox="0 0 24 24" id="close" xmlns="http://www.w3.org/2000/svg">
<path d="M1 1L23 23" stroke-width="2" stroke-linecap="round" stroke-linejoin="round"/>
<path d="M23 1L0.999999 23" stroke-width="2" stroke-linecap="round" stroke-linejoin="round"/>
</symbol><symbol viewBox="0 0 9 16" id="facebook" xmlns="http://www.w3.org/2000/svg">
<path d="M5.95546 15.4946V8.60806H8.2855L8.86801 5.73866H5.95546V4.59091C5.95546 3.44315 6.53914 2.86927 7.70299 2.86927H8.86801V-0.00012207C8.2855 -0.00012207 7.56319 -0.00012207 6.53797 -0.00012207C4.39726 -0.00012207 3.04292 1.65322 3.04292 4.01703V5.73866H0.712891V8.60806H3.04292V15.4946H5.95546Z"/>
</symbol><symbol viewBox="0 0 17 17" id="instagram" xmlns="http://www.w3.org/2000/svg">
<path d="M8.85755 4.69556C6.59948 4.69556 4.72852 6.53427 4.72852 8.82459C4.72852 11.1149 6.56723 12.9536 8.85755 12.9536C11.1479 12.9536 12.9866 11.0827 12.9866 8.82459C12.9866 6.56652 11.1156 4.69556 8.85755 4.69556ZM8.85755 11.4697C7.40594 11.4697 6.21239 10.2762 6.21239 8.82459C6.21239 7.37297 7.40594 6.17943 8.85755 6.17943C10.3092 6.17943 11.5027 7.37297 11.5027 8.82459C11.5027 10.2762 10.3092 11.4697 8.85755 11.4697Z"/>
<path d="M13.1503 5.5343C13.667 5.5343 14.0858 5.11547 14.0858 4.59881C14.0858 4.08216 13.667 3.66333 13.1503 3.66333C12.6337 3.66333 12.2148 4.08216 12.2148 4.59881C12.2148 5.11547 12.6337 5.5343 13.1503 5.5343Z"/>
<path d="M15.5671 2.17976C14.7284 1.30879 13.5348 0.857178 12.18 0.857178H5.53484C2.72839 0.857178 0.857422 2.72815 0.857422 5.5346V12.1475C0.857422 13.5346 1.30903 14.7281 2.21226 15.5991C3.08323 16.4378 4.24452 16.8572 5.5671 16.8572H12.1477C13.5348 16.8572 14.6961 16.4056 15.5348 15.5991C16.4058 14.7604 16.8574 13.5669 16.8574 12.1798V5.5346C16.8574 4.17976 16.4058 3.01847 15.5671 2.17976ZM15.4381 12.1798C15.4381 13.1798 15.0832 13.9862 14.5026 14.5346C13.9219 15.083 13.1155 15.3733 12.1477 15.3733H5.5671C4.59936 15.3733 3.79291 15.083 3.21226 14.5346C2.63162 13.954 2.34129 13.1475 2.34129 12.1475V5.5346C2.34129 4.56685 2.63162 3.7604 3.21226 3.17976C3.76065 2.63137 4.59936 2.34105 5.5671 2.34105H12.2123C13.18 2.34105 13.9865 2.63137 14.5671 3.21202C15.1155 3.79266 15.4381 4.59911 15.4381 5.5346V12.1798Z"/>
</symbol><symbol viewBox="0 0 43 32" id="logo" xmlns="http://www.w3.org/2000/svg">
<path fill-rule="evenodd" clip-rule="evenodd" d="M28.6714 28.2711L22.8768 18.7599H0.40918L9.91935 3.01497C10.4754 2.09453 11.259 1.33342 12.1945 0.805256C13.1299 0.277086 14.1855 -0.000274658 15.2592 -9.53674e-06H20.6972C21.7786 0.000125885 22.8414 0.281881 23.7815 0.817633C24.7215 1.35338 25.5064 2.12474 26.0594 3.05607L35.3805 18.7599L42.9999 31.2665H33.9979C32.9283 31.2665 31.8767 30.991 30.9439 30.4665C30.0112 29.942 29.2286 29.186 28.6714 28.2711Z"/>
</symbol><symbol viewBox="0 0 18 13" id="youtube" xmlns="http://www.w3.org/2000/svg">
<path d="M17.3847 2.27738C17.1902 1.55445 16.6203 0.984565 15.8974 0.789901C14.5769 0.428589 9.29471 0.428589 9.29471 0.428589C9.29471 0.428589 4.01273 0.428589 2.69221 0.776203C1.98328 0.970661 1.39939 1.55455 1.20493 2.27738C0.857422 3.5978 0.857422 6.33617 0.857422 6.33617C0.857422 6.33617 0.857422 9.08835 1.20493 10.395C1.3996 11.1178 1.96938 11.6877 2.69231 11.8823C4.02663 12.2438 9.29492 12.2438 9.29492 12.2438C9.29492 12.2438 14.5769 12.2438 15.8974 11.8961C16.6204 11.7016 17.1902 11.1317 17.3849 10.4089C17.7323 9.08835 17.7323 6.35008 17.7323 6.35008C17.7323 6.35008 17.7462 3.5978 17.3847 2.27738ZM7.61298 8.86598V3.80637L12.0054 6.33617L7.61298 8.86598Z"/>
</symbol></svg>