<svg width="1440" height="145" viewBox="0 0 1440 145" fill="none" xmlns="http://www.w3.org/2000/svg">
<mask id="mask0_1153_3583" style="mask-type:alpha" maskUnits="userSpaceOnUse" x="0" y="0" width="1440" height="145">
<rect width="1440" height="145" fill="#7481FF"/>
</mask>
<g mask="url(#mask0_1153_3583)">
<g filter="url(#filter0_d_1153_3583)">
<path d="M1211.34 110C1215.19 103.333 1224.81 103.333 1228.66 110L1254.65 155C1258.49 161.667 1253.68 170 1245.98 170L1194.02 170C1186.32 170 1181.51 161.667 1185.35 155L1211.34 110Z" fill="#7582FF"/>
</g>
<g filter="url(#filter1_d_1153_3583)">
<path d="M1357.34 126C1361.19 119.333 1370.81 119.333 1374.66 126L1400.65 171C1404.49 177.667 1399.68 186 1391.98 186L1340.02 186C1332.32 186 1327.51 177.667 1331.35 171L1357.34 126Z" fill="#7582FF"/>
</g>
<g filter="url(#filter2_d_1153_3583)">
<path d="M836.661 166C832.812 172.667 823.188 172.667 819.339 166L793.355 121C789.505 114.333 794.317 106 802.016 106L853.984 106C861.683 106 866.495 114.333 862.645 121L836.661 166Z" fill="#7582FF"/>
</g>
<g filter="url(#filter3_d_1153_3583)">
<path d="M592.661 87C588.812 93.6667 579.188 93.6667 575.339 87L549.355 42C545.505 35.3333 550.317 27 558.016 27L609.984 27C617.683 27 622.495 35.3333 618.645 42L592.661 87Z" fill="#7582FF"/>
</g>
<g filter="url(#filter4_d_1153_3583)">
<path d="M1042.66 126C1038.81 132.667 1029.19 132.667 1025.34 126L999.355 81C995.505 74.3333 1000.32 66 1008.02 66L1059.98 66C1067.68 66 1072.49 74.3333 1068.65 81L1042.66 126Z" fill="#7582FF"/>
</g>
<g filter="url(#filter5_d_1153_3583)">
<path d="M987.661 33C983.812 39.6667 974.188 39.6667 970.339 33L944.355 -12C940.505 -18.6667 945.317 -27 953.016 -27L1004.98 -27C1012.68 -27 1017.49 -18.6667 1013.65 -12L987.661 33Z" fill="#7582FF"/>
</g>
<g filter="url(#filter6_d_1153_3583)">
<path d="M1178.66 141C1174.81 147.667 1165.19 147.667 1161.34 141L1135.35 96C1131.51 89.3333 1136.32 81 1144.02 81L1195.98 81C1203.68 81 1208.49 89.3333 1204.65 96L1178.66 141Z" fill="#7582FF"/>
</g>
<g filter="url(#filter7_d_1153_3583)">
<path d="M1374.66 61C1370.81 67.6667 1361.19 67.6667 1357.34 61L1331.35 16C1327.51 9.3333 1332.32 1 1340.02 1L1391.98 1C1399.68 1 1404.49 9.3333 1400.65 16L1374.66 61Z" fill="#7582FF"/>
</g>
<g filter="url(#filter8_d_1153_3583)">
<path d="M1025.34 -4.99997C1029.19 -11.6667 1038.81 -11.6667 1042.66 -4.99997L1068.65 40C1072.49 46.6667 1067.68 55 1059.98 55L1008.02 55C1000.32 55 995.505 46.6667 999.355 40L1025.34 -4.99997Z" fill="#7582FF"/>
</g>
<g filter="url(#filter9_d_1153_3583)">
<path d="M757.339 113C761.188 106.333 770.812 106.333 774.661 113L800.645 158C804.495 164.667 799.683 173 791.984 173L740.016 173C732.317 173 727.505 164.667 731.355 158L757.339 113Z" fill="#7582FF"/>
</g>
<g filter="url(#filter10_d_1153_3583)">
<path d="M870.339 134C874.188 127.333 883.812 127.333 887.661 134L913.645 179C917.495 185.667 912.683 194 904.984 194L853.016 194C845.317 194 840.505 185.667 844.355 179L870.339 134Z" fill="#7582FF"/>
</g>
<g filter="url(#filter11_d_1153_3583)">
<path d="M1309.34 31C1313.19 24.3333 1322.81 24.3333 1326.66 31L1352.65 76C1356.49 82.6667 1351.68 91 1343.98 91L1292.02 91C1284.32 91 1279.51 82.6667 1283.35 76L1309.34 31Z" fill="#7582FF"/>
</g>
<g filter="url(#filter12_d_1153_3583)">
<path d="M835.339 35C839.188 28.3333 848.812 28.3333 852.661 35L878.645 80C882.495 86.6667 877.683 95 869.984 95L818.016 95C810.317 95 805.505 86.6667 809.355 80L835.339 35Z" fill="#7582FF"/>
</g>
<g filter="url(#filter13_d_1153_3583)">
<path d="M706.661 41C702.812 47.6667 693.188 47.6667 689.339 41L663.355 -4C659.505 -10.6667 664.317 -19 672.016 -19L723.984 -19C731.683 -19 736.495 -10.6667 732.645 -4L706.661 41Z" fill="#7582FF"/>
</g>
<g filter="url(#filter14_d_1153_3583)">
<path d="M1094.66 28C1090.81 34.6667 1081.19 34.6667 1077.34 28L1051.35 -17C1047.51 -23.6667 1052.32 -32 1060.02 -32L1111.98 -32C1119.68 -32 1124.49 -23.6667 1120.65 -17L1094.66 28Z" fill="#7582FF"/>
</g>
<g filter="url(#filter15_d_1153_3583)">
<path d="M1326.66 161C1322.81 167.667 1313.19 167.667 1309.34 161L1283.35 116C1279.51 109.333 1284.32 101 1292.02 101L1343.98 101C1351.68 101 1356.49 109.333 1352.65 116L1326.66 161Z" fill="#7582FF"/>
</g>
<g filter="url(#filter16_d_1153_3583)">
<path d="M645.339 17C649.188 10.3333 658.812 10.3333 662.661 17L688.645 62C692.495 68.6667 687.683 77 679.984 77L628.016 77C620.317 77 615.505 68.6667 619.355 62L645.339 17Z" fill="#7582FF"/>
</g>
</g>
<defs>
<filter id="filter0_d_1153_3583" x="1154" y="75" width="132" height="125" filterUnits="userSpaceOnUse" color-interpolation-filters="sRGB">
<feFlood flood-opacity="0" result="BackgroundImageFix"/>
<feColorMatrix in="SourceAlpha" type="matrix" values="0 0 0 0 0 0 0 0 0 0 0 0 0 0 0 0 0 0 127 0" result="hardAlpha"/>
<feOffset/>
<feGaussianBlur stdDeviation="15"/>
<feColorMatrix type="matrix" values="0 0 0 0 0 0 0 0 0 0 0 0 0 0 0 0 0 0 0.08 0"/>
<feBlend mode="normal" in2="BackgroundImageFix" result="effect1_dropShadow_1153_3583"/>
<feBlend mode="normal" in="SourceGraphic" in2="effect1_dropShadow_1153_3583" result="shape"/>
</filter>
<filter id="filter1_d_1153_3583" x="1300" y="91" width="132" height="125" filterUnits="userSpaceOnUse" color-interpolation-filters="sRGB">
<feFlood flood-opacity="0" result="BackgroundImageFix"/>
<feColorMatrix in="SourceAlpha" type="matrix" values="0 0 0 0 0 0 0 0 0 0 0 0 0 0 0 0 0 0 127 0" result="hardAlpha"/>
<feOffset/>
<feGaussianBlur stdDeviation="15"/>
<feColorMatrix type="matrix" values="0 0 0 0 0 0 0 0 0 0 0 0 0 0 0 0 0 0 0.08 0"/>
<feBlend mode="normal" in2="BackgroundImageFix" result="effect1_dropShadow_1153_3583"/>
<feBlend mode="normal" in="SourceGraphic" in2="effect1_dropShadow_1153_3583" result="shape"/>
</filter>
<filter id="filter2_d_1153_3583" x="762" y="76" width="132" height="125" filterUnits="userSpaceOnUse" color-interpolation-filters="sRGB">
<feFlood flood-opacity="0" result="BackgroundImageFix"/>
<feColorMatrix in="SourceAlpha" type="matrix" values="0 0 0 0 0 0 0 0 0 0 0 0 0 0 0 0 0 0 127 0" result="hardAlpha"/>
<feOffset/>
<feGaussianBlur stdDeviation="15"/>
<feColorMatrix type="matrix" values="0 0 0 0 0 0 0 0 0 0 0 0 0 0 0 0 0 0 0.08 0"/>
<feBlend mode="normal" in2="BackgroundImageFix" result="effect1_dropShadow_1153_3583"/>
<feBlend mode="normal" in="SourceGraphic" in2="effect1_dropShadow_1153_3583" result="shape"/>
</filter>
<filter id="filter3_d_1153_3583" x="518" y="-3" width="132" height="125" filterUnits="userSpaceOnUse" color-interpolation-filters="sRGB">
<feFlood flood-opacity="0" result="BackgroundImageFix"/>
<feColorMatrix in="SourceAlpha" type="matrix" values="0 0 0 0 0 0 0 0 0 0 0 0 0 0 0 0 0 0 127 0" result="hardAlpha"/>
<feOffset/>
<feGaussianBlur stdDeviation="15"/>
<feColorMatrix type="matrix" values="0 0 0 0 0 0 0 0 0 0 0 0 0 0 0 0 0 0 0.08 0"/>
<feBlend mode="normal" in2="BackgroundImageFix" result="effect1_dropShadow_1153_3583"/>
<feBlend mode="normal" in="SourceGraphic" in2="effect1_dropShadow_1153_3583" result="shape"/>
</filter>
<filter id="filter4_d_1153_3583" x="968" y="36" width="132" height="125" filterUnits="userSpaceOnUse" color-interpolation-filters="sRGB">
<feFlood flood-opacity="0" result="BackgroundImageFix"/>
<feColorMatrix in="SourceAlpha" type="matrix" values="0 0 0 0 0 0 0 0 0 0 0 0 0 0 0 0 0 0 127 0" result="hardAlpha"/>
<feOffset/>
<feGaussianBlur stdDeviation="15"/>
<feColorMatrix type="matrix" values="0 0 0 0 0 0 0 0 0 0 0 0 0 0 0 0 0 0 0.08 0"/>
<feBlend mode="normal" in2="BackgroundImageFix" result="effect1_dropShadow_1153_3583"/>
<feBlend mode="normal" in="SourceGraphic" in2="effect1_dropShadow_1153_3583" result="shape"/>
</filter>
<filter id="filter5_d_1153_3583" x="913" y="-57" width="132" height="125" filterUnits="userSpaceOnUse" color-interpolation-filters="sRGB">
<feFlood flood-opacity="0" result="BackgroundImageFix"/>
<feColorMatrix in="SourceAlpha" type="matrix" values="0 0 0 0 0 0 0 0 0 0 0 0 0 0 0 0 0 0 127 0" result="hardAlpha"/>
<feOffset/>
<feGaussianBlur stdDeviation="15"/>
<feColorMatrix type="matrix" values="0 0 0 0 0 0 0 0 0 0 0 0 0 0 0 0 0 0 0.08 0"/>
<feBlend mode="normal" in2="BackgroundImageFix" result="effect1_dropShadow_1153_3583"/>
<feBlend mode="normal" in="SourceGraphic" in2="effect1_dropShadow_1153_3583" result="shape"/>
</filter>
<filter id="filter6_d_1153_3583" x="1104" y="51" width="132" height="125" filterUnits="userSpaceOnUse" color-interpolation-filters="sRGB">
<feFlood flood-opacity="0" result="BackgroundImageFix"/>
<feColorMatrix in="SourceAlpha" type="matrix" values="0 0 0 0 0 0 0 0 0 0 0 0 0 0 0 0 0 0 127 0" result="hardAlpha"/>
<feOffset/>
<feGaussianBlur stdDeviation="15"/>
<feColorMatrix type="matrix" values="0 0 0 0 0 0 0 0 0 0 0 0 0 0 0 0 0 0 0.08 0"/>
<feBlend mode="normal" in2="BackgroundImageFix" result="effect1_dropShadow_1153_3583"/>
<feBlend mode="normal" in="SourceGraphic" in2="effect1_dropShadow_1153_3583" result="shape"/>
</filter>
<filter id="filter7_d_1153_3583" x="1300" y="-29" width="132" height="125" filterUnits="userSpaceOnUse" color-interpolation-filters="sRGB">
<feFlood flood-opacity="0" result="BackgroundImageFix"/>
<feColorMatrix in="SourceAlpha" type="matrix" values="0 0 0 0 0 0 0 0 0 0 0 0 0 0 0 0 0 0 127 0" result="hardAlpha"/>
<feOffset/>
<feGaussianBlur stdDeviation="15"/>
<feColorMatrix type="matrix" values="0 0 0 0 0 0 0 0 0 0 0 0 0 0 0 0 0 0 0.08 0"/>
<feBlend mode="normal" in2="BackgroundImageFix" result="effect1_dropShadow_1153_3583"/>
<feBlend mode="normal" in="SourceGraphic" in2="effect1_dropShadow_1153_3583" result="shape"/>
</filter>
<filter id="filter8_d_1153_3583" x="968" y="-40" width="132" height="125" filterUnits="userSpaceOnUse" color-interpolation-filters="sRGB">
<feFlood flood-opacity="0" result="BackgroundImageFix"/>
<feColorMatrix in="SourceAlpha" type="matrix" values="0 0 0 0 0 0 0 0 0 0 0 0 0 0 0 0 0 0 127 0" result="hardAlpha"/>
<feOffset/>
<feGaussianBlur stdDeviation="15"/>
<feColorMatrix type="matrix" values="0 0 0 0 0 0 0 0 0 0 0 0 0 0 0 0 0 0 0.08 0"/>
<feBlend mode="normal" in2="BackgroundImageFix" result="effect1_dropShadow_1153_3583"/>
<feBlend mode="normal" in="SourceGraphic" in2="effect1_dropShadow_1153_3583" result="shape"/>
</filter>
<filter id="filter9_d_1153_3583" x="700" y="78" width="132" height="125" filterUnits="userSpaceOnUse" color-interpolation-filters="sRGB">
<feFlood flood-opacity="0" result="BackgroundImageFix"/>
<feColorMatrix in="SourceAlpha" type="matrix" values="0 0 0 0 0 0 0 0 0 0 0 0 0 0 0 0 0 0 127 0" result="hardAlpha"/>
<feOffset/>
<feGaussianBlur stdDeviation="15"/>
<feColorMatrix type="matrix" values="0 0 0 0 0 0 0 0 0 0 0 0 0 0 0 0 0 0 0.08 0"/>
<feBlend mode="normal" in2="BackgroundImageFix" result="effect1_dropShadow_1153_3583"/>
<feBlend mode="normal" in="SourceGraphic" in2="effect1_dropShadow_1153_3583" result="shape"/>
</filter>
<filter id="filter10_d_1153_3583" x="813" y="99" width="132" height="125" filterUnits="userSpaceOnUse" color-interpolation-filters="sRGB">
<feFlood flood-opacity="0" result="BackgroundImageFix"/>
<feColorMatrix in="SourceAlpha" type="matrix" values="0 0 0 0 0 0 0 0 0 0 0 0 0 0 0 0 0 0 127 0" result="hardAlpha"/>
<feOffset/>
<feGaussianBlur stdDeviation="15"/>
<feColorMatrix type="matrix" values="0 0 0 0 0 0 0 0 0 0 0 0 0 0 0 0 0 0 0.08 0"/>
<feBlend mode="normal" in2="BackgroundImageFix" result="effect1_dropShadow_1153_3583"/>
<feBlend mode="normal" in="SourceGraphic" in2="effect1_dropShadow_1153_3583" result="shape"/>
</filter>
<filter id="filter11_d_1153_3583" x="1252" y="-4" width="132" height="125" filterUnits="userSpaceOnUse" color-interpolation-filters="sRGB">
<feFlood flood-opacity="0" result="BackgroundImageFix"/>
<feColorMatrix in="SourceAlpha" type="matrix" values="0 0 0 0 0 0 0 0 0 0 0 0 0 0 0 0 0 0 127 0" result="hardAlpha"/>
<feOffset/>
<feGaussianBlur stdDeviation="15"/>
<feColorMatrix type="matrix" values="0 0 0 0 0 0 0 0 0 0 0 0 0 0 0 0 0 0 0.08 0"/>
<feBlend mode="normal" in2="BackgroundImageFix" result="effect1_dropShadow_1153_3583"/>
<feBlend mode="normal" in="SourceGraphic" in2="effect1_dropShadow_1153_3583" result="shape"/>
</filter>
<filter id="filter12_d_1153_3583" x="778" y="0" width="132" height="125" filterUnits="userSpaceOnUse" color-interpolation-filters="sRGB">
<feFlood flood-opacity="0" result="BackgroundImageFix"/>
<feColorMatrix in="SourceAlpha" type="matrix" values="0 0 0 0 0 0 0 0 0 0 0 0 0 0 0 0 0 0 127 0" result="hardAlpha"/>
<feOffset/>
<feGaussianBlur stdDeviation="15"/>
<feColorMatrix type="matrix" values="0 0 0 0 0 0 0 0 0 0 0 0 0 0 0 0 0 0 0.08 0"/>
<feBlend mode="normal" in2="BackgroundImageFix" result="effect1_dropShadow_1153_3583"/>
<feBlend mode="normal" in="SourceGraphic" in2="effect1_dropShadow_1153_3583" result="shape"/>
</filter>
<filter id="filter13_d_1153_3583" x="632" y="-49" width="132" height="125" filterUnits="userSpaceOnUse" color-interpolation-filters="sRGB">
<feFlood flood-opacity="0" result="BackgroundImageFix"/>
<feColorMatrix in="SourceAlpha" type="matrix" values="0 0 0 0 0 0 0 0 0 0 0 0 0 0 0 0 0 0 127 0" result="hardAlpha"/>
<feOffset/>
<feGaussianBlur stdDeviation="15"/>
<feColorMatrix type="matrix" values="0 0 0 0 0 0 0 0 0 0 0 0 0 0 0 0 0 0 0.08 0"/>
<feBlend mode="normal" in2="BackgroundImageFix" result="effect1_dropShadow_1153_3583"/>
<feBlend mode="normal" in="SourceGraphic" in2="effect1_dropShadow_1153_3583" result="shape"/>
</filter>
<filter id="filter14_d_1153_3583" x="1020" y="-62" width="132" height="125" filterUnits="userSpaceOnUse" color-interpolation-filters="sRGB">
<feFlood flood-opacity="0" result="BackgroundImageFix"/>
<feColorMatrix in="SourceAlpha" type="matrix" values="0 0 0 0 0 0 0 0 0 0 0 0 0 0 0 0 0 0 127 0" result="hardAlpha"/>
<feOffset/>
<feGaussianBlur stdDeviation="15"/>
<feColorMatrix type="matrix" values="0 0 0 0 0 0 0 0 0 0 0 0 0 0 0 0 0 0 0.08 0"/>
<feBlend mode="normal" in2="BackgroundImageFix" result="effect1_dropShadow_1153_3583"/>
<feBlend mode="normal" in="SourceGraphic" in2="effect1_dropShadow_1153_3583" result="shape"/>
</filter>
<filter id="filter15_d_1153_3583" x="1252" y="71" width="132" height="125" filterUnits="userSpaceOnUse" color-interpolation-filters="sRGB">
<feFlood flood-opacity="0" result="BackgroundImageFix"/>
<feColorMatrix in="SourceAlpha" type="matrix" values="0 0 0 0 0 0 0 0 0 0 0 0 0 0 0 0 0 0 127 0" result="hardAlpha"/>
<feOffset/>
<feGaussianBlur stdDeviation="15"/>
<feColorMatrix type="matrix" values="0 0 0 0 0 0 0 0 0 0 0 0 0 0 0 0 0 0 0.08 0"/>
<feBlend mode="normal" in2="BackgroundImageFix" result="effect1_dropShadow_1153_3583"/>
<feBlend mode="normal" in="SourceGraphic" in2="effect1_dropShadow_1153_3583" result="shape"/>
</filter>
<filter id="filter16_d_1153_3583" x="588" y="-18" width="132" height="125" filterUnits="userSpaceOnUse" color-interpolation-filters="sRGB">
<feFlood flood-opacity="0" result="BackgroundImageFix"/>
<feColorMatrix in="SourceAlpha" type="matrix" values="0 0 0 0 0 0 0 0 0 0 0 0 0 0 0 0 0 0 127 0" result="hardAlpha"/>
<feOffset/>
<feGaussianBlur stdDeviation="15"/>
<feColorMatrix type="matrix" values="0 0 0 0 0 0 0 0 0 0 0 0 0 0 0 0 0 0 0.08 0"/>
<feBlend mode="normal" in2="BackgroundImageFix" result="effect1_dropShadow_1153_3583"/>
<feBlend mode="normal" in="SourceGraphic" in2="effect1_dropShadow_1153_3583" result="shape"/>
</filter>
</defs>
</svg>
