<svg width="34" height="16" viewBox="0 0 34 16" fill="none" xmlns="http://www.w3.org/2000/svg">
<path fill-rule="evenodd" clip-rule="evenodd" d="M32 11.7838V4.59459C32 3.16164 30.8384 2 29.4054 2H15.1338C14.6439 2 14.1758 2.20267 13.8406 2.55994L11.2403 5.3315C10.4841 6.13741 9.42828 6.59459 8.32319 6.59459H7.35135C4.45013 6.59459 2.08814 8.90333 2.00241 11.7838H5.57354C5.53415 11.9849 5.51351 12.1927 5.51351 12.4054C5.51351 12.8987 5.62456 13.366 5.82302 13.7838H1.83784C0.822827 13.7838 0 12.961 0 11.9459C0 7.88591 3.29131 4.59459 7.35135 4.59459H8.32319C8.87573 4.59459 9.40366 4.366 9.78173 3.96305L12.3821 1.19149C13.0954 0.431268 14.0914 0 15.1338 0H29.4054C31.9429 0 34 2.05707 34 4.59459V11.7838C34 12.8884 33.1046 13.7838 32 13.7838H29.0959C29.2943 13.366 29.4054 12.8987 29.4054 12.4054C29.4054 12.1927 29.3848 11.9849 29.3454 11.7838H32ZM23.033 11.7838L11.8859 11.7838C11.9253 11.9849 11.9459 12.1927 11.9459 12.4054C11.9459 12.8987 11.8349 13.366 11.6364 13.7838H23.2825C23.084 13.366 22.973 12.8987 22.973 12.4054C22.973 12.1927 22.9936 11.9849 23.033 11.7838Z" fill="#41456B"/>
<path d="M13.7842 6.43262H15.622" stroke="#41456B" stroke-width="2" stroke-linecap="round" stroke-linejoin="round"/>
<circle cx="8.72989" cy="12.4052" r="2.21622" stroke="#41456B" stroke-width="2"/>
<circle cx="26.1889" cy="12.4052" r="2.21622" stroke="#41456B" stroke-width="2"/>
</svg>
