<svg width="34" height="16" viewBox="0 0 34 16" fill="none" xmlns="http://www.w3.org/2000/svg">
<path fill-rule="evenodd" clip-rule="evenodd" d="M18.2162 6.59459V4.59459L18.2162 2H12.4477L9.97304 5.09337C9.21395 6.04224 8.06469 6.59459 6.84956 6.59459H4C2.89543 6.59459 2 7.49002 2 8.59459L2 11.7838H5.57354C5.53415 11.9849 5.51351 12.1927 5.51351 12.4054C5.51351 12.8987 5.62456 13.366 5.82302 13.7838H2C0.89543 13.7838 0 12.8884 0 11.7838V8.59459C0 6.38546 1.79086 4.59459 4 4.59459H6.84956C7.45713 4.59459 8.03175 4.31842 8.4113 3.84398L10.886 0.750609C11.2655 0.276179 11.8402 0 12.4477 0H18.2162C19.3208 0 20.2162 0.895431 20.2162 2V2.59459V4.59459H22.2162H32C33.1046 4.59459 34 5.49003 34 6.59459V11.7838C34 12.8884 33.1046 13.7838 32 13.7838H29.0959C29.2943 13.366 29.4054 12.8987 29.4054 12.4054C29.4054 12.1927 29.3848 11.9849 29.3454 11.7838H32V6.59459H20.2162H18.2162ZM23.033 11.7838H11.8859C11.9253 11.9849 11.9459 12.1927 11.9459 12.4054C11.9459 12.8987 11.8349 13.366 11.6364 13.7838H23.2825C23.084 13.366 22.973 12.8987 22.973 12.4054C22.973 12.1927 22.9936 11.9849 23.033 11.7838Z" fill="#41456B"/>
<path d="M11.9463 6.43237H13.7841" stroke="#41456B" stroke-width="2" stroke-linecap="round" stroke-linejoin="round"/>
<circle cx="8.72989" cy="12.4054" r="2.21622" stroke="#41456B" stroke-width="2"/>
<circle cx="26.1889" cy="12.4054" r="2.21622" stroke="#41456B" stroke-width="2"/>
</svg>
