<svg width="34" height="15" viewBox="0 0 34 15" fill="none" xmlns="http://www.w3.org/2000/svg">
<path fill-rule="evenodd" clip-rule="evenodd" d="M9.75779 5.59459H9.18919H6.79174H5C3.34315 5.59459 2 6.93774 2 8.59459L2 10.7838H5.57354C5.53415 10.9849 5.51351 11.1927 5.51351 11.4054C5.51351 11.8987 5.62456 12.366 5.82302 12.7838H2C0.89543 12.7838 0 11.8884 0 10.7838V8.59459C0 5.83317 2.23858 3.59459 5 3.59459H9.18919L9.66047 3.30306L11.4051 2.22385L13.9172 0.66982L14.7174 0.174792C14.7832 0.134136 14.8525 0.100284 14.9242 0.0735398C15.0542 0.0251186 15.1923 0 15.3323 0C15.8848 0 16.1287 0.69601 15.6969 1.04088L15.4 1.27811L15.3323 1.3322L15.0038 1.59459L14.6846 1.84956L12.5 3.59459H12.9909H15.7045H29.4865H32C33.1046 3.59459 34 4.49003 34 5.59459V10.7838C34 11.8884 33.1046 12.7838 32 12.7838H29.0959C29.2943 12.366 29.4054 11.8987 29.4054 11.4054C29.4054 11.1927 29.3848 10.9849 29.3454 10.7838H32V5.59459H29.4865H12.5H9.75779ZM23.033 10.7838L11.8859 10.7838C11.9253 10.9849 11.9459 11.1927 11.9459 11.4054C11.9459 11.8987 11.8349 12.366 11.6364 12.7838H23.2825C23.084 12.366 22.973 11.8987 22.973 11.4054C22.973 11.1927 22.9936 10.9849 23.033 10.7838Z" fill="#41456B"/>
<path d="M17 4L18 3" stroke="#41456B" stroke-width="2" stroke-linecap="round" stroke-linejoin="round"/>
<path d="M13 7H15" stroke="#41456B" stroke-width="2" stroke-linecap="round" stroke-linejoin="round"/>
<circle cx="8.72989" cy="11.4052" r="2.21622" stroke="#41456B" stroke-width="2"/>
<circle cx="26.1889" cy="11.4052" r="2.21622" stroke="#41456B" stroke-width="2"/>
</svg>
