<svg width="34" height="15" viewBox="0 0 34 15" fill="none" xmlns="http://www.w3.org/2000/svg">
<path fill-rule="evenodd" clip-rule="evenodd" d="M32 10.7838V5.35008L30.3104 5.12914C29.7759 5.05925 29.285 4.79754 28.9291 4.39273C27.5917 2.87175 25.6643 2 23.6389 2H16.8705C16.1647 2 15.472 2.19017 14.8651 2.5505L10.6823 5.03401C10.0643 5.40095 9.3589 5.59459 8.64018 5.59459H5C3.34315 5.59459 2 6.93774 2 8.59459L2 10.7838H5.57354C5.53415 10.9849 5.51351 11.1927 5.51351 11.4054C5.51351 11.8987 5.62456 12.366 5.82302 12.7838H2C0.89543 12.7838 0 11.8884 0 10.7838V8.59459C0 5.83317 2.23858 3.59459 5 3.59459H8.64018C8.99954 3.59459 9.35226 3.49777 9.66126 3.3143L13.844 0.830795C14.7599 0.28699 15.8054 0 16.8705 0H23.6389C26.2393 0 28.7139 1.11925 30.431 3.07206C30.4668 3.11272 30.5161 3.13901 30.5698 3.14603L32.2593 3.36697C33.2552 3.49719 34 4.34576 34 5.35008V10.7838C34 11.8884 33.1046 12.7838 32 12.7838H29.0959C29.2943 12.366 29.4054 11.8987 29.4054 11.4054C29.4054 11.1927 29.3848 10.9849 29.3454 10.7838H32ZM23.033 10.7838L11.8859 10.7838C11.9253 10.9849 11.9459 11.1927 11.9459 11.4054C11.9459 11.8987 11.8349 12.366 11.6364 12.7838H23.2825C23.084 12.366 22.973 11.8987 22.973 11.4054C22.973 11.1927 22.9936 10.9849 23.033 10.7838Z" fill="#41456B"/>
<path d="M14.7842 5.43237H16.622" stroke="#41456B" stroke-width="2" stroke-linecap="round" stroke-linejoin="round"/>
<circle cx="8.72989" cy="11.4054" r="2.21622" stroke="#41456B" stroke-width="2"/>
<circle cx="26.1889" cy="11.4054" r="2.21622" stroke="#41456B" stroke-width="2"/>
</svg>
