<svg width="34" height="16" viewBox="0 0 34 16" fill="none" xmlns="http://www.w3.org/2000/svg">
<path fill-rule="evenodd" clip-rule="evenodd" d="M32 5.44034C29.5921 3.23221 26.4383 2 23.1576 2H16.6283C15.5912 2 14.5912 2.38659 13.8238 3.08427L11.1067 5.55435C10.3704 6.22371 9.41104 6.59459 8.41597 6.59459H7.35135C4.45013 6.59459 2.08814 8.90333 2.00241 11.7838H5.57354C5.53415 11.9849 5.51351 12.1927 5.51351 12.4054C5.51351 12.8987 5.62456 13.366 5.82302 13.7838H1.83784C0.822827 13.7838 0 12.961 0 11.9459C0 7.88591 3.29131 4.59459 7.35135 4.59459H8.41597C8.91351 4.59459 9.39318 4.40915 9.76132 4.07447L12.4784 1.60439C13.614 0.57203 15.0936 0 16.6283 0H23.1576C27.158 0 30.9946 1.58916 33.8233 4.41788C33.9364 4.53103 34 4.68449 34 4.84451V11.7838C34 12.8884 33.1046 13.7838 32 13.7838H29.0959C29.2943 13.366 29.4054 12.8987 29.4054 12.4054C29.4054 12.1927 29.3848 11.9849 29.3454 11.7838H32V5.44034ZM23.033 11.7838L11.8859 11.7838C11.9253 11.9849 11.9459 12.1927 11.9459 12.4054C11.9459 12.8987 11.8349 13.366 11.6364 13.7838H23.2825C23.084 13.366 22.973 12.8987 22.973 12.4054C22.973 12.1927 22.9936 11.9849 23.033 11.7838Z" fill="#41456B"/>
<path d="M13.7842 6.43262H15.622" stroke="#41456B" stroke-width="2" stroke-linecap="round" stroke-linejoin="round"/>
<circle cx="8.72989" cy="12.4052" r="2.21622" stroke="#41456B" stroke-width="2"/>
<circle cx="26.1889" cy="12.4052" r="2.21622" stroke="#41456B" stroke-width="2"/>
</svg>
